<svg width='512' height='512' xmlns='http://www.w3.org/2000/svg'><style>text {font: 18px sans-serif; fill: green;}</style><svg x='347.0' y='249.0' width='200' height='160' version="1.1" id="Layer_1" xmlns="http://www.w3.org/2000/svg" xmlns:xlink="http://www.w3.org/1999/xlink"
	 viewBox="0 0 612 432" style="enable-background:new 0 0 612 432;" xml:space="preserve">
<style type="text/css">
	.st0{fill:none;stroke:#FFFFFF;stroke-miterlimit:10;}
	.st1{fill:none;stroke:#FF0000;stroke-width:0.5;stroke-miterlimit:10;}
</style>
<path class="st0" d="M120.5,31.3l6.3-4.6c6.3,4,11,10.1,13.2,17.4h-18.7c-1.3,0-2.3-1-2.3-2.3v-7.7C119.1,33,119.6,31.9,120.5,31.3z
	 M114.2,44.1c1.1-0.1,1.9-1.1,1.9-2.2v-8.2c0-1.7,0.8-3.4,2.2-4.4l5.7-4.1c-3.7-1.8-7.8-2.9-12.1-3.1v20
	C111.9,43.2,112.9,44.2,114.2,44.1z M94,26.7c-6.3,4-11,10.1-13.2,17.4h18.7c1.3,0,2.3-1,2.3-2.3v-7.7c0-1.1-0.5-2.2-1.5-2.9
	L94,26.7 M108.9,22c-4.3,0.2-8.4,1.3-12.1,3.1l5.7,4.1c1.4,1,2.2,2.7,2.2,4.4V42c0,1.2,1.1,2.2,2.3,2.1c1.1-0.1,1.9-1.1,1.9-2.2V22
	 M120.5,74.3l6.3,4.6c6.3-4,11-10.1,13.2-17.4h-18.7c-1.3,0-2.3,1-2.3,2.3v7.7C119.1,72.5,119.6,73.6,120.5,74.3z M111.9,63.7v19.9
	c4.3-0.2,8.4-1.3,12.1-3.1l-5.7-4.1c-1.4-1-2.2-2.7-2.2-4.4v-8.4c0-1.2-1.1-2.2-2.3-2.1C112.7,61.6,111.9,62.6,111.9,63.7z
	 M101.7,63.7c0-1.3-1-2.3-2.3-2.3H80.8c2.1,7.3,6.9,13.5,13.2,17.4l6.3-4.6c0.9-0.7,1.5-1.7,1.5-2.9v-7.6H101.7z M106.6,61.5
	c-1.1,0.1-1.9,1.1-1.9,2.2v8.2c0,1.7-0.8,3.4-2.2,4.4l-5.7,4.1c3.7,1.8,7.8,2.9,12.1,3.1v-20C108.9,62.3,107.9,61.3,106.6,61.5z"/>
<path class="st0" d="M151.7,50.7h-10.5c-0.1-1.2-0.2-2.4-0.5-3.6H80.1c-0.2,1.2-0.4,2.4-0.5,3.6H69.1c-1.2,0-2.1,1-2.1,2.1
	c0,1.2,1,2.1,2.1,2.1h10.5c0.1,1.2,0.2,2.4,0.5,3.6h60.6c0.2-1.2,0.4-2.4,0.5-3.6h10.5c1.2,0,2.1-1,2.1-2.1
	C153.8,51.6,152.8,50.7,151.7,50.7z"/>
<path class="st1" d="M151.7,58.5h-7.8c-2.7,16.1-16.7,28.3-33.5,28.3S79.6,74.6,76.9,58.5h-7.8c-3.2,0-5.7-2.6-5.7-5.7
	c0-3.2,2.6-5.7,5.7-5.7h7.8c2.7-16.1,16.7-28.3,33.5-28.3s30.8,12.2,33.5,28.3h7.8c3.2,0,5.7,2.6,5.7,5.7
	C157.4,55.9,154.8,58.5,151.7,58.5z"/> 
</svg>
<text x='356.0' y='246.0' class='small'>{R1, }</text><svg x='197.00000000000003' y='335.6025403784439' width='200' height='160' version="1.1" id="Layer_1" xmlns="http://www.w3.org/2000/svg" xmlns:xlink="http://www.w3.org/1999/xlink"
	 viewBox="0 0 612 432" style="enable-background:new 0 0 612 432;" xml:space="preserve">
<style type="text/css">
	.st0{fill:none;stroke:#FFFFFF;stroke-miterlimit:10;}
	.st1{fill:none;stroke:#FF0000;stroke-width:0.5;stroke-miterlimit:10;}
</style>
<path class="st0" d="M120.5,31.3l6.3-4.6c6.3,4,11,10.1,13.2,17.4h-18.7c-1.3,0-2.3-1-2.3-2.3v-7.7C119.1,33,119.6,31.9,120.5,31.3z
	 M114.2,44.1c1.1-0.1,1.9-1.1,1.9-2.2v-8.2c0-1.7,0.8-3.4,2.2-4.4l5.7-4.1c-3.7-1.8-7.8-2.9-12.1-3.1v20
	C111.9,43.2,112.9,44.2,114.2,44.1z M94,26.7c-6.3,4-11,10.1-13.2,17.4h18.7c1.3,0,2.3-1,2.3-2.3v-7.7c0-1.1-0.5-2.2-1.5-2.9
	L94,26.7 M108.9,22c-4.3,0.2-8.4,1.3-12.1,3.1l5.7,4.1c1.4,1,2.2,2.7,2.2,4.4V42c0,1.2,1.1,2.2,2.3,2.1c1.1-0.1,1.9-1.1,1.9-2.2V22
	 M120.5,74.3l6.3,4.6c6.3-4,11-10.1,13.2-17.4h-18.7c-1.3,0-2.3,1-2.3,2.3v7.7C119.1,72.5,119.6,73.6,120.5,74.3z M111.9,63.7v19.9
	c4.3-0.2,8.4-1.3,12.1-3.1l-5.7-4.1c-1.4-1-2.2-2.7-2.2-4.4v-8.4c0-1.2-1.1-2.2-2.3-2.1C112.7,61.6,111.9,62.6,111.9,63.7z
	 M101.7,63.7c0-1.3-1-2.3-2.3-2.3H80.8c2.1,7.3,6.9,13.5,13.2,17.4l6.3-4.6c0.9-0.7,1.5-1.7,1.5-2.9v-7.6H101.7z M106.6,61.5
	c-1.1,0.1-1.9,1.1-1.9,2.2v8.2c0,1.7-0.8,3.4-2.2,4.4l-5.7,4.1c3.7,1.8,7.8,2.9,12.1,3.1v-20C108.9,62.3,107.9,61.3,106.6,61.5z"/>
<path class="st0" d="M151.7,50.7h-10.5c-0.1-1.2-0.2-2.4-0.5-3.6H80.1c-0.2,1.2-0.4,2.4-0.5,3.6H69.1c-1.2,0-2.1,1-2.1,2.1
	c0,1.2,1,2.1,2.1,2.1h10.5c0.1,1.2,0.2,2.4,0.5,3.6h60.6c0.2-1.2,0.4-2.4,0.5-3.6h10.5c1.2,0,2.1-1,2.1-2.1
	C153.8,51.6,152.8,50.7,151.7,50.7z"/>
<path class="st1" d="M151.7,58.5h-7.8c-2.7,16.1-16.7,28.3-33.5,28.3S79.6,74.6,76.9,58.5h-7.8c-3.2,0-5.7-2.6-5.7-5.7
	c0-3.2,2.6-5.7,5.7-5.7h7.8c2.7-16.1,16.7-28.3,33.5-28.3s30.8,12.2,33.5,28.3h7.8c3.2,0,5.7,2.6,5.7,5.7
	C157.4,55.9,154.8,58.5,151.7,58.5z"/> 
</svg>
<text x='206.00000000000003' y='332.6025403784439' class='small'>{VCC, }</text><svg x='196.99999999999994' y='162.39745962155615' width='200' height='160' version="1.1" id="Layer_1" xmlns="http://www.w3.org/2000/svg" xmlns:xlink="http://www.w3.org/1999/xlink"
	 viewBox="0 0 612 432" style="enable-background:new 0 0 612 432;" xml:space="preserve">
<style type="text/css">
	.st0{fill:none;stroke:#FFFFFF;stroke-miterlimit:10;}
	.st1{fill:none;stroke:#FF0000;stroke-width:0.5;stroke-miterlimit:10;}
</style>
<path class="st0" d="M120.5,31.3l6.3-4.6c6.3,4,11,10.1,13.2,17.4h-18.7c-1.3,0-2.3-1-2.3-2.3v-7.7C119.1,33,119.6,31.9,120.5,31.3z
	 M114.2,44.1c1.1-0.1,1.9-1.1,1.9-2.2v-8.2c0-1.7,0.8-3.4,2.2-4.4l5.7-4.1c-3.7-1.8-7.8-2.9-12.1-3.1v20
	C111.9,43.2,112.9,44.2,114.2,44.1z M94,26.7c-6.3,4-11,10.1-13.2,17.4h18.7c1.3,0,2.3-1,2.3-2.3v-7.7c0-1.1-0.5-2.2-1.5-2.9
	L94,26.7 M108.9,22c-4.3,0.2-8.4,1.3-12.1,3.1l5.7,4.1c1.4,1,2.2,2.7,2.2,4.4V42c0,1.2,1.1,2.2,2.3,2.1c1.1-0.1,1.9-1.1,1.9-2.2V22
	 M120.5,74.3l6.3,4.6c6.3-4,11-10.1,13.2-17.4h-18.7c-1.3,0-2.3,1-2.3,2.3v7.7C119.1,72.5,119.6,73.6,120.5,74.3z M111.9,63.7v19.9
	c4.3-0.2,8.4-1.3,12.1-3.1l-5.7-4.1c-1.4-1-2.2-2.7-2.2-4.4v-8.4c0-1.2-1.1-2.2-2.3-2.1C112.7,61.6,111.9,62.6,111.9,63.7z
	 M101.7,63.7c0-1.3-1-2.3-2.3-2.3H80.8c2.1,7.3,6.9,13.5,13.2,17.4l6.3-4.6c0.9-0.7,1.5-1.7,1.5-2.9v-7.6H101.7z M106.6,61.5
	c-1.1,0.1-1.9,1.1-1.9,2.2v8.2c0,1.7-0.8,3.4-2.2,4.4l-5.7,4.1c3.7,1.8,7.8,2.9,12.1,3.1v-20C108.9,62.3,107.9,61.3,106.6,61.5z"/>
<path class="st0" d="M151.7,50.7h-10.5c-0.1-1.2-0.2-2.4-0.5-3.6H80.1c-0.2,1.2-0.4,2.4-0.5,3.6H69.1c-1.2,0-2.1,1-2.1,2.1
	c0,1.2,1,2.1,2.1,2.1h10.5c0.1,1.2,0.2,2.4,0.5,3.6h60.6c0.2-1.2,0.4-2.4,0.5-3.6h10.5c1.2,0,2.1-1,2.1-2.1
	C153.8,51.6,152.8,50.7,151.7,50.7z"/>
<path class="st1" d="M151.7,58.5h-7.8c-2.7,16.1-16.7,28.3-33.5,28.3S79.6,74.6,76.9,58.5h-7.8c-3.2,0-5.7-2.6-5.7-5.7
	c0-3.2,2.6-5.7,5.7-5.7h7.8c2.7-16.1,16.7-28.3,33.5-28.3s30.8,12.2,33.5,28.3h7.8c3.2,0,5.7,2.6,5.7,5.7
	C157.4,55.9,154.8,58.5,151.7,58.5z"/> 
</svg>
<text x='205.99999999999994' y='159.39745962155615' class='small'>{GND, }</text><circle cx='377.0' cy='287.0' r='2' fill='white' stroke='red' /><circle cx='239.00000000000003' cy='352.6025403784439' r='2' fill='white' stroke='red' /><path d='M 377.0 287.0 L 367.55158023458876 302.7141384592253 L 331.2484197654112 297.5268776921523 L 312.35158023458877 328.95515461060285 L 276.04841976541127 323.76789384352986 L 257.1515802345888 355.1961707619804 L 239.00000000000003 352.6025403784439 ' stroke='white' fill='transparent' /><circle cx='371.0' cy='282.0' r='2' fill='white' stroke='red' /><circle cx='220.99999999999994' cy='195.39745962155615' r='2' fill='white' stroke='red' /><path d='M 371.0 282.0 L 350.25543735346196 283.2896203332218 L 331.74456264653804 246.06936351540062 L 290.25543735346196 248.6486041818443 L 271.74456264653804 211.4283473640231 L 230.2554373534619 214.00758803046674 L 220.99999999999994 195.39745962155615 ' stroke='white' fill='transparent' /></svg>