<?xml version="1.0" encoding="UTF-8"?>
<svg xmlns="http://www.w3.org/2000/svg" xmlns:xlink="http://www.w3.org/1999/xlink"
     width="500" height="500" viewBox="-250.0 -250.0 500 500">
<defs>
<g stroke="black" stroke-width="1" fill="none" transform="rotate(270.0,0,0)" id="d0">
<path d="M4.25,-2.125 L4.25,-19.125" stroke="black" stroke-width="1" fill="none" />
<path d="M4.25,-19.125 L-4.25,-19.125" stroke="black" stroke-width="1" fill="none" />
<path d="M-4.25,-19.125 L-4.25,-2.125" stroke="black" stroke-width="1" fill="none" />
<path d="M-4.25,-2.125 L4.25,-2.125" stroke="black" stroke-width="1" fill="none" />
<path d="M4.10518476172854,12.774961883371427 L3.680607966083864,14.825000000000001" stroke="black" stroke-width="1" fill="none" />
<path d="M3.680607966083864,14.825000000000001 L3.0052038200428273,16.585407640085656" stroke="black" stroke-width="1" fill="none" />
<path d="M3.0052038200428273,16.585407640085656 L2.1250000000000004,17.936215932167727" stroke="black" stroke-width="1" fill="none" />
<path d="M2.1250000000000004,17.936215932167727 L1.0999809416857131,18.78536952345708" stroke="black" stroke-width="1" fill="none" />
<path d="M1.0999809416857131,18.78536952345708 L2.6023744481881253e-16,19.075" stroke="black" stroke-width="1" fill="none" />
<path d="M2.6023744481881253e-16,19.075 L-1.0999809416857125,18.78536952345708" stroke="black" stroke-width="1" fill="none" />
<path d="M-1.0999809416857125,18.78536952345708 L-2.124999999999999,17.936215932167727" stroke="black" stroke-width="1" fill="none" />
<path d="M-2.124999999999999,17.936215932167727 L-3.0052038200428264,16.585407640085656" stroke="black" stroke-width="1" fill="none" />
<path d="M-3.0052038200428264,16.585407640085656 L-3.680607966083864,14.825000000000001" stroke="black" stroke-width="1" fill="none" />
<path d="M-3.680607966083864,14.825000000000001 L-4.105184761728539,12.774961883371429" stroke="black" stroke-width="1" fill="none" />
<path d="M-4.105184761728539,12.774961883371429 L-4.25,10.575000000000001" stroke="black" stroke-width="1" fill="none" />
<path d="M-4.25,10.575000000000001 L-4.10518476172854,8.375038116628575" stroke="black" stroke-width="1" fill="none" />
<path d="M-4.10518476172854,8.375038116628575 L-3.6806079660838646,6.325000000000003" stroke="black" stroke-width="1" fill="none" />
<path d="M-3.6806079660838646,6.325000000000003 L-3.005203820042828,4.56459235991435" stroke="black" stroke-width="1" fill="none" />
<path d="M-3.005203820042828,4.56459235991435 L-2.1250000000000018,3.2137840678322735" stroke="black" stroke-width="1" fill="none" />
<path d="M-2.1250000000000018,3.2137840678322735 L-1.0999809416857125,2.3646304765429207" stroke="black" stroke-width="1" fill="none" />
<path d="M-1.0999809416857125,2.3646304765429207 L-7.807123344564376e-16,2.075000000000001" stroke="black" stroke-width="1" fill="none" />
<path d="M-7.807123344564376e-16,2.075000000000001 L1.0999809416857111,2.3646304765429194" stroke="black" stroke-width="1" fill="none" />
<path d="M1.0999809416857111,2.3646304765429194 L2.1250000000000004,3.2137840678322727" stroke="black" stroke-width="1" fill="none" />
<path d="M2.1250000000000004,3.2137840678322727 L3.005203820042826,4.564592359914346" stroke="black" stroke-width="1" fill="none" />
<path d="M3.005203820042826,4.564592359914346 L3.680607966083863,6.324999999999996" stroke="black" stroke-width="1" fill="none" />
<path d="M3.680607966083863,6.324999999999996 L4.105184761728539,8.375038116628568" stroke="black" stroke-width="1" fill="none" />
<path d="M4.105184761728539,8.375038116628568 L4.25,10.575000000000001" stroke="black" stroke-width="1" fill="none" />
<path d="M4.25,10.575000000000001 L4.10518476172854,12.774961883371427" stroke="black" stroke-width="1" fill="none" />
</g>
<g stroke="black" stroke-width="1" fill="none" transform="rotate(0.0,0,0)" id="d1">
<path d="M3.8637033051562732,1.035276180410083 L3.464101615137755,1.9999999999999998" stroke="black" stroke-width="1" fill="none" />
<path d="M3.464101615137755,1.9999999999999998 L2.8284271247461903,2.8284271247461903" stroke="black" stroke-width="1" fill="none" />
<path d="M2.8284271247461903,2.8284271247461903 L2.0000000000000004,3.4641016151377544" stroke="black" stroke-width="1" fill="none" />
<path d="M2.0000000000000004,3.4641016151377544 L1.035276180410083,3.8637033051562732" stroke="black" stroke-width="1" fill="none" />
<path d="M1.035276180410083,3.8637033051562732 L2.4492935982947064e-16,4.0" stroke="black" stroke-width="1" fill="none" />
<path d="M2.4492935982947064e-16,4.0 L-1.0352761804100825,3.8637033051562732" stroke="black" stroke-width="1" fill="none" />
<path d="M-1.0352761804100825,3.8637033051562732 L-1.9999999999999991,3.464101615137755" stroke="black" stroke-width="1" fill="none" />
<path d="M-1.9999999999999991,3.464101615137755 L-2.82842712474619,2.8284271247461903" stroke="black" stroke-width="1" fill="none" />
<path d="M-2.82842712474619,2.8284271247461903 L-3.464101615137755,1.9999999999999998" stroke="black" stroke-width="1" fill="none" />
<path d="M-3.464101615137755,1.9999999999999998 L-3.863703305156273,1.035276180410084" stroke="black" stroke-width="1" fill="none" />
<path d="M-3.863703305156273,1.035276180410084 L-4.0,4.898587196589413e-16" stroke="black" stroke-width="1" fill="none" />
<path d="M-4.0,4.898587196589413e-16 L-3.8637033051562732,-1.0352761804100832" stroke="black" stroke-width="1" fill="none" />
<path d="M-3.8637033051562732,-1.0352761804100832 L-3.4641016151377553,-1.999999999999999" stroke="black" stroke-width="1" fill="none" />
<path d="M-3.4641016151377553,-1.999999999999999 L-2.8284271247461916,-2.8284271247461885" stroke="black" stroke-width="1" fill="none" />
<path d="M-2.8284271247461916,-2.8284271247461885 L-2.0000000000000018,-3.464101615137754" stroke="black" stroke-width="1" fill="none" />
<path d="M-2.0000000000000018,-3.464101615137754 L-1.0352761804100825,-3.8637033051562732" stroke="black" stroke-width="1" fill="none" />
<path d="M-1.0352761804100825,-3.8637033051562732 L-7.347880794884119e-16,-4.0" stroke="black" stroke-width="1" fill="none" />
<path d="M-7.347880794884119e-16,-4.0 L1.0352761804100812,-3.8637033051562737" stroke="black" stroke-width="1" fill="none" />
<path d="M1.0352761804100812,-3.8637033051562737 L2.0000000000000004,-3.4641016151377544" stroke="black" stroke-width="1" fill="none" />
<path d="M2.0000000000000004,-3.4641016151377544 L2.8284271247461894,-2.8284271247461907" stroke="black" stroke-width="1" fill="none" />
<path d="M2.8284271247461894,-2.8284271247461907 L3.4641016151377535,-2.0000000000000018" stroke="black" stroke-width="1" fill="none" />
<path d="M3.4641016151377535,-2.0000000000000018 L3.8637033051562724,-1.0352761804100863" stroke="black" stroke-width="1" fill="none" />
<path d="M3.8637033051562724,-1.0352761804100863 L4.0,0.0" stroke="black" stroke-width="1" fill="none" />
<path d="M4.0,0.0 L3.8637033051562732,1.035276180410083" stroke="black" stroke-width="1" fill="none" />
</g>
<g stroke="black" stroke-width="1" fill="none" transform="rotate(0.0,0,0)" id="d2">
<path d="M3.8637033051562732,1.035276180410083 L3.464101615137755,1.9999999999999998" stroke="black" stroke-width="1" fill="none" />
<path d="M3.464101615137755,1.9999999999999998 L2.8284271247461903,2.8284271247461903" stroke="black" stroke-width="1" fill="none" />
<path d="M2.8284271247461903,2.8284271247461903 L2.0000000000000004,3.4641016151377544" stroke="black" stroke-width="1" fill="none" />
<path d="M2.0000000000000004,3.4641016151377544 L1.035276180410083,3.8637033051562732" stroke="black" stroke-width="1" fill="none" />
<path d="M1.035276180410083,3.8637033051562732 L2.4492935982947064e-16,4.0" stroke="black" stroke-width="1" fill="none" />
<path d="M2.4492935982947064e-16,4.0 L-1.0352761804100825,3.8637033051562732" stroke="black" stroke-width="1" fill="none" />
<path d="M-1.0352761804100825,3.8637033051562732 L-1.9999999999999991,3.464101615137755" stroke="black" stroke-width="1" fill="none" />
<path d="M-1.9999999999999991,3.464101615137755 L-2.82842712474619,2.8284271247461903" stroke="black" stroke-width="1" fill="none" />
<path d="M-2.82842712474619,2.8284271247461903 L-3.464101615137755,1.9999999999999998" stroke="black" stroke-width="1" fill="none" />
<path d="M-3.464101615137755,1.9999999999999998 L-3.863703305156273,1.035276180410084" stroke="black" stroke-width="1" fill="none" />
<path d="M-3.863703305156273,1.035276180410084 L-4.0,4.898587196589413e-16" stroke="black" stroke-width="1" fill="none" />
<path d="M-4.0,4.898587196589413e-16 L-3.8637033051562732,-1.0352761804100832" stroke="black" stroke-width="1" fill="none" />
<path d="M-3.8637033051562732,-1.0352761804100832 L-3.4641016151377553,-1.999999999999999" stroke="black" stroke-width="1" fill="none" />
<path d="M-3.4641016151377553,-1.999999999999999 L-2.8284271247461916,-2.8284271247461885" stroke="black" stroke-width="1" fill="none" />
<path d="M-2.8284271247461916,-2.8284271247461885 L-2.0000000000000018,-3.464101615137754" stroke="black" stroke-width="1" fill="none" />
<path d="M-2.0000000000000018,-3.464101615137754 L-1.0352761804100825,-3.8637033051562732" stroke="black" stroke-width="1" fill="none" />
<path d="M-1.0352761804100825,-3.8637033051562732 L-7.347880794884119e-16,-4.0" stroke="black" stroke-width="1" fill="none" />
<path d="M-7.347880794884119e-16,-4.0 L1.0352761804100812,-3.8637033051562737" stroke="black" stroke-width="1" fill="none" />
<path d="M1.0352761804100812,-3.8637033051562737 L2.0000000000000004,-3.4641016151377544" stroke="black" stroke-width="1" fill="none" />
<path d="M2.0000000000000004,-3.4641016151377544 L2.8284271247461894,-2.8284271247461907" stroke="black" stroke-width="1" fill="none" />
<path d="M2.8284271247461894,-2.8284271247461907 L3.4641016151377535,-2.0000000000000018" stroke="black" stroke-width="1" fill="none" />
<path d="M3.4641016151377535,-2.0000000000000018 L3.8637033051562724,-1.0352761804100863" stroke="black" stroke-width="1" fill="none" />
<path d="M3.8637033051562724,-1.0352761804100863 L4.0,0.0" stroke="black" stroke-width="1" fill="none" />
<path d="M4.0,0.0 L3.8637033051562732,1.035276180410083" stroke="black" stroke-width="1" fill="none" />
</g>
</defs>
<circle cx="0" cy="0" r="45.0" stroke="black" stroke-width="1" fill="none" />
<circle cx="0" cy="0" r="47.0" stroke="black" stroke-width="1" fill="none" />
<path d="M36.86184199300463,-25.810939635797073 A45.0,45.0,0,0,1,43.466662183008076,-11.646857029613432" stroke="black" stroke-width="1" fill="none" />
<path d="M43.466662183008076,11.646857029613432 A45.0,45.0,0,0,1,36.86184199300463,25.810939635797073" stroke="black" stroke-width="1" fill="none" />
<path d="M-36.861841993004624,25.810939635797087 A45.0,45.0,0,0,1,-43.46666218300807,11.646857029613447" stroke="black" stroke-width="1" fill="none" />
<path d="M-43.466662183008076,-11.646857029613416 A45.0,45.0,0,0,1,-36.86184199300464,-25.810939635797062" stroke="black" stroke-width="1" fill="none" />
<path d="M43.466662183008076,11.646857029613432 L58.466662183008076,11.646857029613432" stroke="black" stroke-width="1" fill="none" />
<path d="M43.466662183008076,-11.646857029613432 L58.466662183008076,-11.646857029613432" stroke="black" stroke-width="1" fill="none" />
<path d="M-43.46666218300807,11.646857029613447 L-58.46666218300807,11.646857029613447" stroke="black" stroke-width="1" fill="none" />
<path d="M-43.466662183008076,-11.646857029613436 L-58.466662183008076,-11.646857029613436" stroke="black" stroke-width="1" fill="none" />
<path d="M58.466662183008076,11.646857029613432 A11.646857029613432,11.646857029613432,0,1,0,58.466662183008076,-11.646857029613432" stroke="black" stroke-width="1" fill="none" />
<path d="M-58.46666218300807,-11.646857029613432 A11.646857029613432,11.646857029613432,0,1,0,-58.46666218300807,11.646857029613432" stroke="black" stroke-width="1" fill="none" />
<path d="M36.86184199300463,25.810939635797073 L24.574561328669756,17.20729309053138" stroke="black" stroke-width="1" fill="none" />
<path d="M24.574561328669756,17.20729309053138 A30.0,30.0,0,0,1,17.20729309053138,24.574561328669756" stroke="black" stroke-width="1" fill="none" />
<path d="M25.810939635797073,36.86184199300463 L17.20729309053138,24.574561328669756" stroke="black" stroke-width="1" fill="none" />
<path d="M25.810939635797073,36.86184199300463 A45.0,45.0,0,0,1,19.017821778331474,40.783850416649244" stroke="black" stroke-width="1" fill="none" />
<path d="M19.017821778331474,40.783850416649244 L12.678547852220984,27.1892336110995" stroke="black" stroke-width="1" fill="none" />
<path d="M12.678547852220984,27.1892336110995 A30.0,30.0,0,0,1,2.614672282429744,29.885840942752367" stroke="black" stroke-width="1" fill="none" />
<path d="M3.922008423644616,44.82876141412855 L2.614672282429744,29.885840942752367" stroke="black" stroke-width="1" fill="none" />
<path d="M3.922008423644616,44.82876141412855 A45.0,45.0,0,0,1,-3.9220084236446207,44.82876141412855" stroke="black" stroke-width="1" fill="none" />
<path d="M-3.9220084236446207,44.82876141412855 L-2.6146722824297473,29.885840942752367" stroke="black" stroke-width="1" fill="none" />
<path d="M-2.6146722824297473,29.885840942752367 A30.0,30.0,0,0,1,-12.67854785222098,27.189233611099503" stroke="black" stroke-width="1" fill="none" />
<path d="M-19.01782177833147,40.78385041664925 L-12.67854785222098,27.189233611099503" stroke="black" stroke-width="1" fill="none" />
<path d="M-19.01782177833147,40.78385041664925 A45.0,45.0,0,0,1,-25.810939635797062,36.86184199300464" stroke="black" stroke-width="1" fill="none" />
<path d="M-25.810939635797077,36.861841993004624 L-17.207293090531383,24.574561328669752" stroke="black" stroke-width="1" fill="none" />
<path d="M-17.207293090531376,24.57456132866976 A30.0,30.0,0,0,1,-24.57456132866975,17.20729309053139" stroke="black" stroke-width="1" fill="none" />
<path d="M-36.86184199300464,25.810939635797066 L-24.57456132866976,17.20729309053138" stroke="black" stroke-width="1" fill="none" />
<path d="M-36.861841993004624,25.810939635797087 A45.0,45.0,0,0,1,-40.783850416649244,19.017821778331477" stroke="black" stroke-width="1" fill="none" />
<path d="M-36.86184199300463,-25.810939635797077 L-24.574561328669756,-17.207293090531383" stroke="black" stroke-width="1" fill="none" />
<path d="M-24.57456132866976,-17.207293090531376 A30.0,30.0,0,0,1,-17.20729309053139,-24.57456132866975" stroke="black" stroke-width="1" fill="none" />
<path d="M-25.810939635797087,-36.861841993004624 L-17.20729309053139,-24.57456132866975" stroke="black" stroke-width="1" fill="none" />
<path d="M-25.810939635797087,-36.861841993004624 A45.0,45.0,0,0,1,-19.0178217783315,-40.78385041664924" stroke="black" stroke-width="1" fill="none" />
<path d="M-19.017821778331463,-40.78385041664926 L-12.678547852220975,-27.189233611099503" stroke="black" stroke-width="1" fill="none" />
<path d="M-12.678547852220998,-27.189233611099493 A30.0,30.0,0,0,1,-2.6146722824297477,-29.885840942752367" stroke="black" stroke-width="1" fill="none" />
<path d="M-3.922008423644621,-44.82876141412855 L-2.6146722824297477,-29.885840942752367" stroke="black" stroke-width="1" fill="none" />
<path d="M-3.922008423644621,-44.82876141412855 A45.0,45.0,0,0,1,3.922008423644605,-44.82876141412855" stroke="black" stroke-width="1" fill="none" />
<path d="M3.922008423644605,-44.82876141412855 L2.6146722824297366,-29.885840942752367" stroke="black" stroke-width="1" fill="none" />
<path d="M2.6146722824297366,-29.885840942752367 A30.0,30.0,0,0,1,12.678547852220989,-27.189233611099496" stroke="black" stroke-width="1" fill="none" />
<path d="M19.01782177833148,-40.783850416649244 L12.678547852220989,-27.189233611099496" stroke="black" stroke-width="1" fill="none" />
<path d="M19.01782177833148,-40.783850416649244 A45.0,45.0,0,0,1,25.810939635797073,-36.86184199300463" stroke="black" stroke-width="1" fill="none" />
<path d="M25.810939635797073,-36.86184199300463 L17.20729309053138,-24.574561328669756" stroke="black" stroke-width="1" fill="none" />
<path d="M17.20729309053138,-24.574561328669756 A30.0,30.0,0,0,1,24.57456132866975,-17.207293090531394" stroke="black" stroke-width="1" fill="none" />
<path d="M36.861841993004624,-25.81093963579709 L24.57456132866975,-17.207293090531394" stroke="black" stroke-width="1" fill="none" />
<use xlink:href="#d0" x="0.0" y="0.0" />
<use xlink:href="#d1" x="21.21320343559642" y="-21.21320343559643" />
<use xlink:href="#d2" x="-21.21320343559643" y="-21.213203435596423" />
<path d="M9.14663859753386,-5.22694970290474 L23.33452377915606,-19.091883092036788" stroke="black" stroke-width="1" fill="none" />
<path d="M3.6033614024661405,-7.523050297095281 L19.091883092036777,-23.334523779156072" stroke="black" stroke-width="1" fill="none" />
<path d="M9.375,7.347880794884119e-16 L9.14663859753386,-5.22694970290474" stroke="black" stroke-width="1" fill="none" />
<path d="M3.375,-7.347880794884119e-16 L3.6033614024661405,-7.523050297095281" stroke="black" stroke-width="1" fill="none" />
<path d="M9.375,7.347880794884119e-16 L3.375,-7.347880794884119e-16" stroke="black" stroke-width="1" fill="none" />
<path d="M23.33452377915606,-19.091883092036788 L19.091883092036777,-23.334523779156072" stroke="black" stroke-width="1" fill="none" />
<path d="M-3.553361402466141,-7.473050297095264 L-19.091883092036788,-23.334523779156065" stroke="black" stroke-width="1" fill="none" />
<path d="M-9.096638597533861,-5.176949702904724 L-23.334523779156072,-19.09188309203678" stroke="black" stroke-width="1" fill="none" />
<path d="M-3.325000000000001,7.347880794884119e-16 L-3.553361402466141,-7.473050297095264" stroke="black" stroke-width="1" fill="none" />
<path d="M-9.325000000000001,-7.347880794884119e-16 L-9.096638597533861,-5.176949702904724" stroke="black" stroke-width="1" fill="none" />
<path d="M-3.325000000000001,7.347880794884119e-16 L-9.325000000000001,-7.347880794884119e-16" stroke="black" stroke-width="1" fill="none" />
<path d="M-19.091883092036788,-23.334523779156065 L-23.334523779156072,-19.09188309203678" stroke="black" stroke-width="1" fill="none" />
</svg>