<?xml version="1.0" encoding="UTF-8"?>
<svg xmlns="http://www.w3.org/2000/svg" xmlns:xlink="http://www.w3.org/1999/xlink"
     width="500" height="500" viewBox="-250.0 -250.0 500 500">
<defs>
<g stroke="black" stroke-width="1" fill="none" transform="rotate(0.0,0,0)" id="d0">
<path d="M-9.188519215976523,0.9058666578588226 L-9.88782217350893,1.7499999999999996" stroke="black" stroke-width="1" fill="none" />
<path d="M-9.88782217350893,1.7499999999999996 L-11.000252531694168,2.4748737341529163" stroke="black" stroke-width="1" fill="none" />
<path d="M-11.000252531694168,2.4748737341529163 L-12.450000000000001,3.0310889132455348" stroke="black" stroke-width="1" fill="none" />
<path d="M-12.450000000000001,3.0310889132455348 L-14.138266684282357,3.380740392011739" stroke="black" stroke-width="1" fill="none" />
<path d="M-14.138266684282357,3.380740392011739 L-15.95,3.5" stroke="black" stroke-width="1" fill="none" />
<path d="M-15.95,3.5 L-17.761733315717645,3.380740392011739" stroke="black" stroke-width="1" fill="none" />
<path d="M-17.761733315717645,3.380740392011739 L-19.45,3.0310889132455356" stroke="black" stroke-width="1" fill="none" />
<path d="M-19.45,3.0310889132455356 L-20.899747468305833,2.4748737341529163" stroke="black" stroke-width="1" fill="none" />
<path d="M-20.899747468305833,2.4748737341529163 L-22.01217782649107,1.7499999999999996" stroke="black" stroke-width="1" fill="none" />
<path d="M-22.01217782649107,1.7499999999999996 L-22.71148078402348,0.9058666578588236" stroke="black" stroke-width="1" fill="none" />
<path d="M-22.71148078402348,0.9058666578588236 L-22.95,4.286263797015736e-16" stroke="black" stroke-width="1" fill="none" />
<path d="M-22.95,4.286263797015736e-16 L-22.71148078402348,-0.9058666578588227" stroke="black" stroke-width="1" fill="none" />
<path d="M-22.71148078402348,-0.9058666578588227 L-22.01217782649107,-1.7499999999999991" stroke="black" stroke-width="1" fill="none" />
<path d="M-22.01217782649107,-1.7499999999999991 L-20.89974746830584,-2.474873734152915" stroke="black" stroke-width="1" fill="none" />
<path d="M-20.89974746830584,-2.474873734152915 L-19.450000000000003,-3.0310889132455343" stroke="black" stroke-width="1" fill="none" />
<path d="M-19.450000000000003,-3.0310889132455343 L-17.761733315717645,-3.380740392011739" stroke="black" stroke-width="1" fill="none" />
<path d="M-17.761733315717645,-3.380740392011739 L-15.950000000000003,-3.5" stroke="black" stroke-width="1" fill="none" />
<path d="M-15.950000000000003,-3.5 L-14.138266684282359,-3.380740392011739" stroke="black" stroke-width="1" fill="none" />
<path d="M-14.138266684282359,-3.380740392011739 L-12.450000000000001,-3.0310889132455348" stroke="black" stroke-width="1" fill="none" />
<path d="M-12.450000000000001,-3.0310889132455348 L-11.00025253169417,-2.474873734152917" stroke="black" stroke-width="1" fill="none" />
<path d="M-11.00025253169417,-2.474873734152917 L-9.887822173508932,-1.7500000000000016" stroke="black" stroke-width="1" fill="none" />
<path d="M-9.887822173508932,-1.7500000000000016 L-9.188519215976525,-0.9058666578588255" stroke="black" stroke-width="1" fill="none" />
<path d="M-9.188519215976525,-0.9058666578588255 L-8.950000000000001,0.0" stroke="black" stroke-width="1" fill="none" />
<path d="M-8.950000000000001,0.0 L-9.188519215976523,0.9058666578588226" stroke="black" stroke-width="1" fill="none" />
<path d="M23.21148078402348,0.9058666578588226 L22.51217782649107,1.7499999999999996" stroke="black" stroke-width="1" fill="none" />
<path d="M22.51217782649107,1.7499999999999996 L21.399747468305833,2.4748737341529163" stroke="black" stroke-width="1" fill="none" />
<path d="M21.399747468305833,2.4748737341529163 L19.950000000000003,3.0310889132455348" stroke="black" stroke-width="1" fill="none" />
<path d="M19.950000000000003,3.0310889132455348 L18.261733315717645,3.380740392011739" stroke="black" stroke-width="1" fill="none" />
<path d="M18.261733315717645,3.380740392011739 L16.45,3.5" stroke="black" stroke-width="1" fill="none" />
<path d="M16.45,3.5 L14.638266684282355,3.380740392011739" stroke="black" stroke-width="1" fill="none" />
<path d="M14.638266684282355,3.380740392011739 L12.950000000000003,3.0310889132455356" stroke="black" stroke-width="1" fill="none" />
<path d="M12.950000000000003,3.0310889132455356 L11.50025253169417,2.4748737341529163" stroke="black" stroke-width="1" fill="none" />
<path d="M11.50025253169417,2.4748737341529163 L10.387822173508932,1.7499999999999996" stroke="black" stroke-width="1" fill="none" />
<path d="M10.387822173508932,1.7499999999999996 L9.688519215976523,0.9058666578588236" stroke="black" stroke-width="1" fill="none" />
<path d="M9.688519215976523,0.9058666578588236 L9.450000000000003,4.286263797015736e-16" stroke="black" stroke-width="1" fill="none" />
<path d="M9.450000000000003,4.286263797015736e-16 L9.688519215976523,-0.9058666578588227" stroke="black" stroke-width="1" fill="none" />
<path d="M9.688519215976523,-0.9058666578588227 L10.387822173508932,-1.7499999999999991" stroke="black" stroke-width="1" fill="none" />
<path d="M10.387822173508932,-1.7499999999999991 L11.500252531694164,-2.474873734152915" stroke="black" stroke-width="1" fill="none" />
<path d="M11.500252531694164,-2.474873734152915 L12.95,-3.0310889132455343" stroke="black" stroke-width="1" fill="none" />
<path d="M12.95,-3.0310889132455343 L14.638266684282355,-3.380740392011739" stroke="black" stroke-width="1" fill="none" />
<path d="M14.638266684282355,-3.380740392011739 L16.45,-3.5" stroke="black" stroke-width="1" fill="none" />
<path d="M16.45,-3.5 L18.261733315717642,-3.380740392011739" stroke="black" stroke-width="1" fill="none" />
<path d="M18.261733315717642,-3.380740392011739 L19.950000000000003,-3.0310889132455348" stroke="black" stroke-width="1" fill="none" />
<path d="M19.950000000000003,-3.0310889132455348 L21.399747468305833,-2.474873734152917" stroke="black" stroke-width="1" fill="none" />
<path d="M21.399747468305833,-2.474873734152917 L22.51217782649107,-1.7500000000000016" stroke="black" stroke-width="1" fill="none" />
<path d="M22.51217782649107,-1.7500000000000016 L23.21148078402348,-0.9058666578588255" stroke="black" stroke-width="1" fill="none" />
<path d="M23.21148078402348,-0.9058666578588255 L23.449999999999996,0.0" stroke="black" stroke-width="1" fill="none" />
<path d="M23.449999999999996,0.0 L23.21148078402348,0.9058666578588226" stroke="black" stroke-width="1" fill="none" />
</g>
<g stroke="black" stroke-width="1" fill="none" transform="rotate(0.0,0,0)" id="d1">
<path d="M3.8637033051562732,1.035276180410083 L3.464101615137755,1.9999999999999998" stroke="black" stroke-width="1" fill="none" />
<path d="M3.464101615137755,1.9999999999999998 L2.8284271247461903,2.8284271247461903" stroke="black" stroke-width="1" fill="none" />
<path d="M2.8284271247461903,2.8284271247461903 L2.0000000000000004,3.4641016151377544" stroke="black" stroke-width="1" fill="none" />
<path d="M2.0000000000000004,3.4641016151377544 L1.035276180410083,3.8637033051562732" stroke="black" stroke-width="1" fill="none" />
<path d="M1.035276180410083,3.8637033051562732 L2.4492935982947064e-16,4.0" stroke="black" stroke-width="1" fill="none" />
<path d="M2.4492935982947064e-16,4.0 L-1.0352761804100825,3.8637033051562732" stroke="black" stroke-width="1" fill="none" />
<path d="M-1.0352761804100825,3.8637033051562732 L-1.9999999999999991,3.464101615137755" stroke="black" stroke-width="1" fill="none" />
<path d="M-1.9999999999999991,3.464101615137755 L-2.82842712474619,2.8284271247461903" stroke="black" stroke-width="1" fill="none" />
<path d="M-2.82842712474619,2.8284271247461903 L-3.464101615137755,1.9999999999999998" stroke="black" stroke-width="1" fill="none" />
<path d="M-3.464101615137755,1.9999999999999998 L-3.863703305156273,1.035276180410084" stroke="black" stroke-width="1" fill="none" />
<path d="M-3.863703305156273,1.035276180410084 L-4.0,4.898587196589413e-16" stroke="black" stroke-width="1" fill="none" />
<path d="M-4.0,4.898587196589413e-16 L-3.8637033051562732,-1.0352761804100832" stroke="black" stroke-width="1" fill="none" />
<path d="M-3.8637033051562732,-1.0352761804100832 L-3.4641016151377553,-1.999999999999999" stroke="black" stroke-width="1" fill="none" />
<path d="M-3.4641016151377553,-1.999999999999999 L-2.8284271247461916,-2.8284271247461885" stroke="black" stroke-width="1" fill="none" />
<path d="M-2.8284271247461916,-2.8284271247461885 L-2.0000000000000018,-3.464101615137754" stroke="black" stroke-width="1" fill="none" />
<path d="M-2.0000000000000018,-3.464101615137754 L-1.0352761804100825,-3.8637033051562732" stroke="black" stroke-width="1" fill="none" />
<path d="M-1.0352761804100825,-3.8637033051562732 L-7.347880794884119e-16,-4.0" stroke="black" stroke-width="1" fill="none" />
<path d="M-7.347880794884119e-16,-4.0 L1.0352761804100812,-3.8637033051562737" stroke="black" stroke-width="1" fill="none" />
<path d="M1.0352761804100812,-3.8637033051562737 L2.0000000000000004,-3.4641016151377544" stroke="black" stroke-width="1" fill="none" />
<path d="M2.0000000000000004,-3.4641016151377544 L2.8284271247461894,-2.8284271247461907" stroke="black" stroke-width="1" fill="none" />
<path d="M2.8284271247461894,-2.8284271247461907 L3.4641016151377535,-2.0000000000000018" stroke="black" stroke-width="1" fill="none" />
<path d="M3.4641016151377535,-2.0000000000000018 L3.8637033051562724,-1.0352761804100863" stroke="black" stroke-width="1" fill="none" />
<path d="M3.8637033051562724,-1.0352761804100863 L4.0,0.0" stroke="black" stroke-width="1" fill="none" />
<path d="M4.0,0.0 L3.8637033051562732,1.035276180410083" stroke="black" stroke-width="1" fill="none" />
</g>
<g stroke="black" stroke-width="1" fill="none" transform="rotate(0.0,0,0)" id="d2">
<path d="M3.8637033051562732,1.035276180410083 L3.464101615137755,1.9999999999999998" stroke="black" stroke-width="1" fill="none" />
<path d="M3.464101615137755,1.9999999999999998 L2.8284271247461903,2.8284271247461903" stroke="black" stroke-width="1" fill="none" />
<path d="M2.8284271247461903,2.8284271247461903 L2.0000000000000004,3.4641016151377544" stroke="black" stroke-width="1" fill="none" />
<path d="M2.0000000000000004,3.4641016151377544 L1.035276180410083,3.8637033051562732" stroke="black" stroke-width="1" fill="none" />
<path d="M1.035276180410083,3.8637033051562732 L2.4492935982947064e-16,4.0" stroke="black" stroke-width="1" fill="none" />
<path d="M2.4492935982947064e-16,4.0 L-1.0352761804100825,3.8637033051562732" stroke="black" stroke-width="1" fill="none" />
<path d="M-1.0352761804100825,3.8637033051562732 L-1.9999999999999991,3.464101615137755" stroke="black" stroke-width="1" fill="none" />
<path d="M-1.9999999999999991,3.464101615137755 L-2.82842712474619,2.8284271247461903" stroke="black" stroke-width="1" fill="none" />
<path d="M-2.82842712474619,2.8284271247461903 L-3.464101615137755,1.9999999999999998" stroke="black" stroke-width="1" fill="none" />
<path d="M-3.464101615137755,1.9999999999999998 L-3.863703305156273,1.035276180410084" stroke="black" stroke-width="1" fill="none" />
<path d="M-3.863703305156273,1.035276180410084 L-4.0,4.898587196589413e-16" stroke="black" stroke-width="1" fill="none" />
<path d="M-4.0,4.898587196589413e-16 L-3.8637033051562732,-1.0352761804100832" stroke="black" stroke-width="1" fill="none" />
<path d="M-3.8637033051562732,-1.0352761804100832 L-3.4641016151377553,-1.999999999999999" stroke="black" stroke-width="1" fill="none" />
<path d="M-3.4641016151377553,-1.999999999999999 L-2.8284271247461916,-2.8284271247461885" stroke="black" stroke-width="1" fill="none" />
<path d="M-2.8284271247461916,-2.8284271247461885 L-2.0000000000000018,-3.464101615137754" stroke="black" stroke-width="1" fill="none" />
<path d="M-2.0000000000000018,-3.464101615137754 L-1.0352761804100825,-3.8637033051562732" stroke="black" stroke-width="1" fill="none" />
<path d="M-1.0352761804100825,-3.8637033051562732 L-7.347880794884119e-16,-4.0" stroke="black" stroke-width="1" fill="none" />
<path d="M-7.347880794884119e-16,-4.0 L1.0352761804100812,-3.8637033051562737" stroke="black" stroke-width="1" fill="none" />
<path d="M1.0352761804100812,-3.8637033051562737 L2.0000000000000004,-3.4641016151377544" stroke="black" stroke-width="1" fill="none" />
<path d="M2.0000000000000004,-3.4641016151377544 L2.8284271247461894,-2.8284271247461907" stroke="black" stroke-width="1" fill="none" />
<path d="M2.8284271247461894,-2.8284271247461907 L3.4641016151377535,-2.0000000000000018" stroke="black" stroke-width="1" fill="none" />
<path d="M3.4641016151377535,-2.0000000000000018 L3.8637033051562724,-1.0352761804100863" stroke="black" stroke-width="1" fill="none" />
<path d="M3.8637033051562724,-1.0352761804100863 L4.0,0.0" stroke="black" stroke-width="1" fill="none" />
<path d="M4.0,0.0 L3.8637033051562732,1.035276180410083" stroke="black" stroke-width="1" fill="none" />
</g>
</defs>
<circle cx="0" cy="0" r="45.0" stroke="black" stroke-width="1" fill="none" />
<circle cx="0" cy="0" r="47.0" stroke="black" stroke-width="1" fill="none" />
<path d="M36.86184199300463,-25.810939635797073 A45.0,45.0,0,0,1,43.466662183008076,-11.646857029613432" stroke="black" stroke-width="1" fill="none" />
<path d="M43.466662183008076,11.646857029613432 A45.0,45.0,0,0,1,36.86184199300463,25.810939635797073" stroke="black" stroke-width="1" fill="none" />
<path d="M-36.861841993004624,25.810939635797087 A45.0,45.0,0,0,1,-43.46666218300807,11.646857029613447" stroke="black" stroke-width="1" fill="none" />
<path d="M-43.466662183008076,-11.646857029613416 A45.0,45.0,0,0,1,-36.86184199300464,-25.810939635797062" stroke="black" stroke-width="1" fill="none" />
<path d="M43.466662183008076,11.646857029613432 L58.466662183008076,11.646857029613432" stroke="black" stroke-width="1" fill="none" />
<path d="M43.466662183008076,-11.646857029613432 L58.466662183008076,-11.646857029613432" stroke="black" stroke-width="1" fill="none" />
<path d="M-43.46666218300807,11.646857029613447 L-58.46666218300807,11.646857029613447" stroke="black" stroke-width="1" fill="none" />
<path d="M-43.466662183008076,-11.646857029613436 L-58.466662183008076,-11.646857029613436" stroke="black" stroke-width="1" fill="none" />
<path d="M58.466662183008076,11.646857029613432 A11.646857029613432,11.646857029613432,0,1,0,58.466662183008076,-11.646857029613432" stroke="black" stroke-width="1" fill="none" />
<path d="M-58.46666218300807,-11.646857029613432 A11.646857029613432,11.646857029613432,0,1,0,-58.46666218300807,11.646857029613432" stroke="black" stroke-width="1" fill="none" />
<path d="M36.86184199300463,25.810939635797073 L24.574561328669756,17.20729309053138" stroke="black" stroke-width="1" fill="none" />
<path d="M24.574561328669756,17.20729309053138 A30.0,30.0,0,0,1,17.20729309053138,24.574561328669756" stroke="black" stroke-width="1" fill="none" />
<path d="M25.810939635797073,36.86184199300463 L17.20729309053138,24.574561328669756" stroke="black" stroke-width="1" fill="none" />
<path d="M25.810939635797073,36.86184199300463 A45.0,45.0,0,0,1,19.017821778331474,40.783850416649244" stroke="black" stroke-width="1" fill="none" />
<path d="M19.017821778331474,40.783850416649244 L12.678547852220984,27.1892336110995" stroke="black" stroke-width="1" fill="none" />
<path d="M12.678547852220984,27.1892336110995 A30.0,30.0,0,0,1,2.614672282429744,29.885840942752367" stroke="black" stroke-width="1" fill="none" />
<path d="M3.922008423644616,44.82876141412855 L2.614672282429744,29.885840942752367" stroke="black" stroke-width="1" fill="none" />
<path d="M3.922008423644616,44.82876141412855 A45.0,45.0,0,0,1,-3.9220084236446207,44.82876141412855" stroke="black" stroke-width="1" fill="none" />
<path d="M-3.9220084236446207,44.82876141412855 L-2.6146722824297473,29.885840942752367" stroke="black" stroke-width="1" fill="none" />
<path d="M-2.6146722824297473,29.885840942752367 A30.0,30.0,0,0,1,-12.67854785222098,27.189233611099503" stroke="black" stroke-width="1" fill="none" />
<path d="M-19.01782177833147,40.78385041664925 L-12.67854785222098,27.189233611099503" stroke="black" stroke-width="1" fill="none" />
<path d="M-19.01782177833147,40.78385041664925 A45.0,45.0,0,0,1,-25.810939635797062,36.86184199300464" stroke="black" stroke-width="1" fill="none" />
<path d="M-25.810939635797077,36.861841993004624 L-17.207293090531383,24.574561328669752" stroke="black" stroke-width="1" fill="none" />
<path d="M-17.207293090531376,24.57456132866976 A30.0,30.0,0,0,1,-24.57456132866975,17.20729309053139" stroke="black" stroke-width="1" fill="none" />
<path d="M-36.86184199300464,25.810939635797066 L-24.57456132866976,17.20729309053138" stroke="black" stroke-width="1" fill="none" />
<path d="M-36.861841993004624,25.810939635797087 A45.0,45.0,0,0,1,-40.783850416649244,19.017821778331477" stroke="black" stroke-width="1" fill="none" />
<path d="M-36.86184199300463,-25.810939635797077 L-24.574561328669756,-17.207293090531383" stroke="black" stroke-width="1" fill="none" />
<path d="M-24.57456132866976,-17.207293090531376 A30.0,30.0,0,0,1,-17.20729309053139,-24.57456132866975" stroke="black" stroke-width="1" fill="none" />
<path d="M-25.810939635797087,-36.861841993004624 L-17.20729309053139,-24.57456132866975" stroke="black" stroke-width="1" fill="none" />
<path d="M-25.810939635797087,-36.861841993004624 A45.0,45.0,0,0,1,-19.0178217783315,-40.78385041664924" stroke="black" stroke-width="1" fill="none" />
<path d="M-19.017821778331463,-40.78385041664926 L-12.678547852220975,-27.189233611099503" stroke="black" stroke-width="1" fill="none" />
<path d="M-12.678547852220998,-27.189233611099493 A30.0,30.0,0,0,1,-2.6146722824297477,-29.885840942752367" stroke="black" stroke-width="1" fill="none" />
<path d="M-3.922008423644621,-44.82876141412855 L-2.6146722824297477,-29.885840942752367" stroke="black" stroke-width="1" fill="none" />
<path d="M-3.922008423644621,-44.82876141412855 A45.0,45.0,0,0,1,3.922008423644605,-44.82876141412855" stroke="black" stroke-width="1" fill="none" />
<path d="M3.922008423644605,-44.82876141412855 L2.6146722824297366,-29.885840942752367" stroke="black" stroke-width="1" fill="none" />
<path d="M2.6146722824297366,-29.885840942752367 A30.0,30.0,0,0,1,12.678547852220989,-27.189233611099496" stroke="black" stroke-width="1" fill="none" />
<path d="M19.01782177833148,-40.783850416649244 L12.678547852220989,-27.189233611099496" stroke="black" stroke-width="1" fill="none" />
<path d="M19.01782177833148,-40.783850416649244 A45.0,45.0,0,0,1,25.810939635797073,-36.86184199300463" stroke="black" stroke-width="1" fill="none" />
<path d="M25.810939635797073,-36.86184199300463 L17.20729309053138,-24.574561328669756" stroke="black" stroke-width="1" fill="none" />
<path d="M17.20729309053138,-24.574561328669756 A30.0,30.0,0,0,1,24.57456132866975,-17.207293090531394" stroke="black" stroke-width="1" fill="none" />
<path d="M36.861841993004624,-25.81093963579709 L24.57456132866975,-17.207293090531394" stroke="black" stroke-width="1" fill="none" />
<use xlink:href="#d0" x="0.0" y="0.0" />
<use xlink:href="#d1" x="21.213203435596427" y="21.213203435596427" />
<use xlink:href="#d2" x="7.764571353075622" y="28.97777478867205" />
</svg>