<?xml version="1.0" encoding="UTF-8"?>
<svg xmlns="http://www.w3.org/2000/svg" xmlns:xlink="http://www.w3.org/1999/xlink"
     width="500" height="500" viewBox="-250.0 -250.0 500 500">
<defs>
<g stroke="black" stroke-width="1" fill="none" transform="rotate(0.0,0,0)" id="d0">
<path d="M-9.188519215976523,0.9058666578588226 L-9.88782217350893,1.7499999999999996" stroke="black" stroke-width="1" fill="none" />
<path d="M-9.88782217350893,1.7499999999999996 L-11.000252531694168,2.4748737341529163" stroke="black" stroke-width="1" fill="none" />
<path d="M-11.000252531694168,2.4748737341529163 L-12.450000000000001,3.0310889132455348" stroke="black" stroke-width="1" fill="none" />
<path d="M-12.450000000000001,3.0310889132455348 L-14.138266684282357,3.380740392011739" stroke="black" stroke-width="1" fill="none" />
<path d="M-14.138266684282357,3.380740392011739 L-15.95,3.5" stroke="black" stroke-width="1" fill="none" />
<path d="M-15.95,3.5 L-17.761733315717645,3.380740392011739" stroke="black" stroke-width="1" fill="none" />
<path d="M-17.761733315717645,3.380740392011739 L-19.45,3.0310889132455356" stroke="black" stroke-width="1" fill="none" />
<path d="M-19.45,3.0310889132455356 L-20.899747468305833,2.4748737341529163" stroke="black" stroke-width="1" fill="none" />
<path d="M-20.899747468305833,2.4748737341529163 L-22.01217782649107,1.7499999999999996" stroke="black" stroke-width="1" fill="none" />
<path d="M-22.01217782649107,1.7499999999999996 L-22.71148078402348,0.9058666578588236" stroke="black" stroke-width="1" fill="none" />
<path d="M-22.71148078402348,0.9058666578588236 L-22.95,4.286263797015736e-16" stroke="black" stroke-width="1" fill="none" />
<path d="M-22.95,4.286263797015736e-16 L-22.71148078402348,-0.9058666578588227" stroke="black" stroke-width="1" fill="none" />
<path d="M-22.71148078402348,-0.9058666578588227 L-22.01217782649107,-1.7499999999999991" stroke="black" stroke-width="1" fill="none" />
<path d="M-22.01217782649107,-1.7499999999999991 L-20.89974746830584,-2.474873734152915" stroke="black" stroke-width="1" fill="none" />
<path d="M-20.89974746830584,-2.474873734152915 L-19.450000000000003,-3.0310889132455343" stroke="black" stroke-width="1" fill="none" />
<path d="M-19.450000000000003,-3.0310889132455343 L-17.761733315717645,-3.380740392011739" stroke="black" stroke-width="1" fill="none" />
<path d="M-17.761733315717645,-3.380740392011739 L-15.950000000000003,-3.5" stroke="black" stroke-width="1" fill="none" />
<path d="M-15.950000000000003,-3.5 L-14.138266684282359,-3.380740392011739" stroke="black" stroke-width="1" fill="none" />
<path d="M-14.138266684282359,-3.380740392011739 L-12.450000000000001,-3.0310889132455348" stroke="black" stroke-width="1" fill="none" />
<path d="M-12.450000000000001,-3.0310889132455348 L-11.00025253169417,-2.474873734152917" stroke="black" stroke-width="1" fill="none" />
<path d="M-11.00025253169417,-2.474873734152917 L-9.887822173508932,-1.7500000000000016" stroke="black" stroke-width="1" fill="none" />
<path d="M-9.887822173508932,-1.7500000000000016 L-9.188519215976525,-0.9058666578588255" stroke="black" stroke-width="1" fill="none" />
<path d="M-9.188519215976525,-0.9058666578588255 L-8.950000000000001,0.0" stroke="black" stroke-width="1" fill="none" />
<path d="M-8.950000000000001,0.0 L-9.188519215976523,0.9058666578588226" stroke="black" stroke-width="1" fill="none" />
<path d="M23.21148078402348,0.9058666578588226 L22.51217782649107,1.7499999999999996" stroke="black" stroke-width="1" fill="none" />
<path d="M22.51217782649107,1.7499999999999996 L21.399747468305833,2.4748737341529163" stroke="black" stroke-width="1" fill="none" />
<path d="M21.399747468305833,2.4748737341529163 L19.950000000000003,3.0310889132455348" stroke="black" stroke-width="1" fill="none" />
<path d="M19.950000000000003,3.0310889132455348 L18.261733315717645,3.380740392011739" stroke="black" stroke-width="1" fill="none" />
<path d="M18.261733315717645,3.380740392011739 L16.45,3.5" stroke="black" stroke-width="1" fill="none" />
<path d="M16.45,3.5 L14.638266684282355,3.380740392011739" stroke="black" stroke-width="1" fill="none" />
<path d="M14.638266684282355,3.380740392011739 L12.950000000000003,3.0310889132455356" stroke="black" stroke-width="1" fill="none" />
<path d="M12.950000000000003,3.0310889132455356 L11.50025253169417,2.4748737341529163" stroke="black" stroke-width="1" fill="none" />
<path d="M11.50025253169417,2.4748737341529163 L10.387822173508932,1.7499999999999996" stroke="black" stroke-width="1" fill="none" />
<path d="M10.387822173508932,1.7499999999999996 L9.688519215976523,0.9058666578588236" stroke="black" stroke-width="1" fill="none" />
<path d="M9.688519215976523,0.9058666578588236 L9.450000000000003,4.286263797015736e-16" stroke="black" stroke-width="1" fill="none" />
<path d="M9.450000000000003,4.286263797015736e-16 L9.688519215976523,-0.9058666578588227" stroke="black" stroke-width="1" fill="none" />
<path d="M9.688519215976523,-0.9058666578588227 L10.387822173508932,-1.7499999999999991" stroke="black" stroke-width="1" fill="none" />
<path d="M10.387822173508932,-1.7499999999999991 L11.500252531694164,-2.474873734152915" stroke="black" stroke-width="1" fill="none" />
<path d="M11.500252531694164,-2.474873734152915 L12.95,-3.0310889132455343" stroke="black" stroke-width="1" fill="none" />
<path d="M12.95,-3.0310889132455343 L14.638266684282355,-3.380740392011739" stroke="black" stroke-width="1" fill="none" />
<path d="M14.638266684282355,-3.380740392011739 L16.45,-3.5" stroke="black" stroke-width="1" fill="none" />
<path d="M16.45,-3.5 L18.261733315717642,-3.380740392011739" stroke="black" stroke-width="1" fill="none" />
<path d="M18.261733315717642,-3.380740392011739 L19.950000000000003,-3.0310889132455348" stroke="black" stroke-width="1" fill="none" />
<path d="M19.950000000000003,-3.0310889132455348 L21.399747468305833,-2.474873734152917" stroke="black" stroke-width="1" fill="none" />
<path d="M21.399747468305833,-2.474873734152917 L22.51217782649107,-1.7500000000000016" stroke="black" stroke-width="1" fill="none" />
<path d="M22.51217782649107,-1.7500000000000016 L23.21148078402348,-0.9058666578588255" stroke="black" stroke-width="1" fill="none" />
<path d="M23.21148078402348,-0.9058666578588255 L23.449999999999996,0.0" stroke="black" stroke-width="1" fill="none" />
<path d="M23.449999999999996,0.0 L23.21148078402348,0.9058666578588226" stroke="black" stroke-width="1" fill="none" />
</g>
<g stroke="black" stroke-width="1" fill="none" transform="rotate(180.0,0,0)" id="d1">
<path d="M-1.8750000000000018,4.5 L-1.8750000000000018,-4.5" stroke="black" stroke-width="1" fill="none" />
<path d="M-1.8750000000000018,-4.5 L-19.875,-4.5" stroke="black" stroke-width="1" fill="none" />
<path d="M-19.875,-4.5 L-19.875,4.5" stroke="black" stroke-width="1" fill="none" />
<path d="M-19.875,4.5 L-1.8750000000000018,4.5" stroke="black" stroke-width="1" fill="none" />
<path d="M19.51833243660161,1.1646857029613433 L18.619228634059944,2.25" stroke="black" stroke-width="1" fill="none" />
<path d="M18.619228634059944,2.25 L17.18896103067893,3.1819805153394642" stroke="black" stroke-width="1" fill="none" />
<path d="M17.18896103067893,3.1819805153394642 L15.324999999999998,3.897114317029974" stroke="black" stroke-width="1" fill="none" />
<path d="M15.324999999999998,3.897114317029974 L13.154371405922687,4.346666218300808" stroke="black" stroke-width="1" fill="none" />
<path d="M13.154371405922687,4.346666218300808 L10.825,4.5" stroke="black" stroke-width="1" fill="none" />
<path d="M10.825,4.5 L8.495628594077312,4.346666218300808" stroke="black" stroke-width="1" fill="none" />
<path d="M8.495628594077312,4.346666218300808 L6.325000000000002,3.8971143170299745" stroke="black" stroke-width="1" fill="none" />
<path d="M6.325000000000002,3.8971143170299745 L4.461038969321073,3.1819805153394642" stroke="black" stroke-width="1" fill="none" />
<path d="M4.461038969321073,3.1819805153394642 L3.0307713659400504,2.25" stroke="black" stroke-width="1" fill="none" />
<path d="M3.0307713659400504,2.25 L2.131667563398385,1.1646857029613447" stroke="black" stroke-width="1" fill="none" />
<path d="M2.131667563398385,1.1646857029613447 L1.8249999999999988,5.51091059616309e-16" stroke="black" stroke-width="1" fill="none" />
<path d="M1.8249999999999988,5.51091059616309e-16 L2.131667563398384,-1.1646857029613435" stroke="black" stroke-width="1" fill="none" />
<path d="M2.131667563398384,-1.1646857029613435 L3.0307713659400495,-2.2499999999999987" stroke="black" stroke-width="1" fill="none" />
<path d="M3.0307713659400495,-2.2499999999999987 L4.461038969321068,-3.181980515339462" stroke="black" stroke-width="1" fill="none" />
<path d="M4.461038969321068,-3.181980515339462 L6.324999999999995,-3.897114317029973" stroke="black" stroke-width="1" fill="none" />
<path d="M6.324999999999995,-3.897114317029973 L8.495628594077312,-4.346666218300808" stroke="black" stroke-width="1" fill="none" />
<path d="M8.495628594077312,-4.346666218300808 L10.824999999999996,-4.5" stroke="black" stroke-width="1" fill="none" />
<path d="M10.824999999999996,-4.5 L13.154371405922682,-4.3466662183008085" stroke="black" stroke-width="1" fill="none" />
<path d="M13.154371405922682,-4.3466662183008085 L15.324999999999998,-3.897114317029974" stroke="black" stroke-width="1" fill="none" />
<path d="M15.324999999999998,-3.897114317029974 L17.188961030678925,-3.1819805153394647" stroke="black" stroke-width="1" fill="none" />
<path d="M17.188961030678925,-3.1819805153394647 L18.619228634059944,-2.2500000000000018" stroke="black" stroke-width="1" fill="none" />
<path d="M18.619228634059944,-2.2500000000000018 L19.51833243660161,-1.164685702961347" stroke="black" stroke-width="1" fill="none" />
<path d="M19.51833243660161,-1.164685702961347 L19.825,0.0" stroke="black" stroke-width="1" fill="none" />
<path d="M19.825,0.0 L19.51833243660161,1.1646857029613433" stroke="black" stroke-width="1" fill="none" />
</g>
<g stroke="black" stroke-width="1" fill="none" transform="rotate(0.0,0,0)" id="d2">
<path d="M3.8637033051562732,1.035276180410083 L3.464101615137755,1.9999999999999998" stroke="black" stroke-width="1" fill="none" />
<path d="M3.464101615137755,1.9999999999999998 L2.8284271247461903,2.8284271247461903" stroke="black" stroke-width="1" fill="none" />
<path d="M2.8284271247461903,2.8284271247461903 L2.0000000000000004,3.4641016151377544" stroke="black" stroke-width="1" fill="none" />
<path d="M2.0000000000000004,3.4641016151377544 L1.035276180410083,3.8637033051562732" stroke="black" stroke-width="1" fill="none" />
<path d="M1.035276180410083,3.8637033051562732 L2.4492935982947064e-16,4.0" stroke="black" stroke-width="1" fill="none" />
<path d="M2.4492935982947064e-16,4.0 L-1.0352761804100825,3.8637033051562732" stroke="black" stroke-width="1" fill="none" />
<path d="M-1.0352761804100825,3.8637033051562732 L-1.9999999999999991,3.464101615137755" stroke="black" stroke-width="1" fill="none" />
<path d="M-1.9999999999999991,3.464101615137755 L-2.82842712474619,2.8284271247461903" stroke="black" stroke-width="1" fill="none" />
<path d="M-2.82842712474619,2.8284271247461903 L-3.464101615137755,1.9999999999999998" stroke="black" stroke-width="1" fill="none" />
<path d="M-3.464101615137755,1.9999999999999998 L-3.863703305156273,1.035276180410084" stroke="black" stroke-width="1" fill="none" />
<path d="M-3.863703305156273,1.035276180410084 L-4.0,4.898587196589413e-16" stroke="black" stroke-width="1" fill="none" />
<path d="M-4.0,4.898587196589413e-16 L-3.8637033051562732,-1.0352761804100832" stroke="black" stroke-width="1" fill="none" />
<path d="M-3.8637033051562732,-1.0352761804100832 L-3.4641016151377553,-1.999999999999999" stroke="black" stroke-width="1" fill="none" />
<path d="M-3.4641016151377553,-1.999999999999999 L-2.8284271247461916,-2.8284271247461885" stroke="black" stroke-width="1" fill="none" />
<path d="M-2.8284271247461916,-2.8284271247461885 L-2.0000000000000018,-3.464101615137754" stroke="black" stroke-width="1" fill="none" />
<path d="M-2.0000000000000018,-3.464101615137754 L-1.0352761804100825,-3.8637033051562732" stroke="black" stroke-width="1" fill="none" />
<path d="M-1.0352761804100825,-3.8637033051562732 L-7.347880794884119e-16,-4.0" stroke="black" stroke-width="1" fill="none" />
<path d="M-7.347880794884119e-16,-4.0 L1.0352761804100812,-3.8637033051562737" stroke="black" stroke-width="1" fill="none" />
<path d="M1.0352761804100812,-3.8637033051562737 L2.0000000000000004,-3.4641016151377544" stroke="black" stroke-width="1" fill="none" />
<path d="M2.0000000000000004,-3.4641016151377544 L2.8284271247461894,-2.8284271247461907" stroke="black" stroke-width="1" fill="none" />
<path d="M2.8284271247461894,-2.8284271247461907 L3.4641016151377535,-2.0000000000000018" stroke="black" stroke-width="1" fill="none" />
<path d="M3.4641016151377535,-2.0000000000000018 L3.8637033051562724,-1.0352761804100863" stroke="black" stroke-width="1" fill="none" />
<path d="M3.8637033051562724,-1.0352761804100863 L4.0,0.0" stroke="black" stroke-width="1" fill="none" />
<path d="M4.0,0.0 L3.8637033051562732,1.035276180410083" stroke="black" stroke-width="1" fill="none" />
</g>
<g stroke="black" stroke-width="1" fill="none" transform="rotate(0.0,0,0)" id="d3">
<path d="M3.8637033051562732,1.035276180410083 L3.464101615137755,1.9999999999999998" stroke="black" stroke-width="1" fill="none" />
<path d="M3.464101615137755,1.9999999999999998 L2.8284271247461903,2.8284271247461903" stroke="black" stroke-width="1" fill="none" />
<path d="M2.8284271247461903,2.8284271247461903 L2.0000000000000004,3.4641016151377544" stroke="black" stroke-width="1" fill="none" />
<path d="M2.0000000000000004,3.4641016151377544 L1.035276180410083,3.8637033051562732" stroke="black" stroke-width="1" fill="none" />
<path d="M1.035276180410083,3.8637033051562732 L2.4492935982947064e-16,4.0" stroke="black" stroke-width="1" fill="none" />
<path d="M2.4492935982947064e-16,4.0 L-1.0352761804100825,3.8637033051562732" stroke="black" stroke-width="1" fill="none" />
<path d="M-1.0352761804100825,3.8637033051562732 L-1.9999999999999991,3.464101615137755" stroke="black" stroke-width="1" fill="none" />
<path d="M-1.9999999999999991,3.464101615137755 L-2.82842712474619,2.8284271247461903" stroke="black" stroke-width="1" fill="none" />
<path d="M-2.82842712474619,2.8284271247461903 L-3.464101615137755,1.9999999999999998" stroke="black" stroke-width="1" fill="none" />
<path d="M-3.464101615137755,1.9999999999999998 L-3.863703305156273,1.035276180410084" stroke="black" stroke-width="1" fill="none" />
<path d="M-3.863703305156273,1.035276180410084 L-4.0,4.898587196589413e-16" stroke="black" stroke-width="1" fill="none" />
<path d="M-4.0,4.898587196589413e-16 L-3.8637033051562732,-1.0352761804100832" stroke="black" stroke-width="1" fill="none" />
<path d="M-3.8637033051562732,-1.0352761804100832 L-3.4641016151377553,-1.999999999999999" stroke="black" stroke-width="1" fill="none" />
<path d="M-3.4641016151377553,-1.999999999999999 L-2.8284271247461916,-2.8284271247461885" stroke="black" stroke-width="1" fill="none" />
<path d="M-2.8284271247461916,-2.8284271247461885 L-2.0000000000000018,-3.464101615137754" stroke="black" stroke-width="1" fill="none" />
<path d="M-2.0000000000000018,-3.464101615137754 L-1.0352761804100825,-3.8637033051562732" stroke="black" stroke-width="1" fill="none" />
<path d="M-1.0352761804100825,-3.8637033051562732 L-7.347880794884119e-16,-4.0" stroke="black" stroke-width="1" fill="none" />
<path d="M-7.347880794884119e-16,-4.0 L1.0352761804100812,-3.8637033051562737" stroke="black" stroke-width="1" fill="none" />
<path d="M1.0352761804100812,-3.8637033051562737 L2.0000000000000004,-3.4641016151377544" stroke="black" stroke-width="1" fill="none" />
<path d="M2.0000000000000004,-3.4641016151377544 L2.8284271247461894,-2.8284271247461907" stroke="black" stroke-width="1" fill="none" />
<path d="M2.8284271247461894,-2.8284271247461907 L3.4641016151377535,-2.0000000000000018" stroke="black" stroke-width="1" fill="none" />
<path d="M3.4641016151377535,-2.0000000000000018 L3.8637033051562724,-1.0352761804100863" stroke="black" stroke-width="1" fill="none" />
<path d="M3.8637033051562724,-1.0352761804100863 L4.0,0.0" stroke="black" stroke-width="1" fill="none" />
<path d="M4.0,0.0 L3.8637033051562732,1.035276180410083" stroke="black" stroke-width="1" fill="none" />
</g>
</defs>
<circle cx="0" cy="0" r="60.0" stroke="black" stroke-width="1" fill="none" />
<circle cx="0" cy="0" r="62.0" stroke="black" stroke-width="1" fill="none" />
<path d="M49.14912265733951,-34.41458618106276 A60.0,60.0,0,0,1,57.9555495773441,-15.529142706151244" stroke="black" stroke-width="1" fill="none" />
<path d="M57.9555495773441,15.529142706151244 A60.0,60.0,0,0,1,49.14912265733951,34.41458618106276" stroke="black" stroke-width="1" fill="none" />
<path d="M-49.1491226573395,34.41458618106278 A60.0,60.0,0,0,1,-57.955549577344094,15.52914270615126" stroke="black" stroke-width="1" fill="none" />
<path d="M-57.95554957734411,-15.529142706151221 A60.0,60.0,0,0,1,-49.14912265733952,-34.41458618106275" stroke="black" stroke-width="1" fill="none" />
<path d="M57.9555495773441,15.529142706151244 L72.9555495773441,15.529142706151244" stroke="black" stroke-width="1" fill="none" />
<path d="M57.9555495773441,-15.529142706151244 L72.9555495773441,-15.529142706151244" stroke="black" stroke-width="1" fill="none" />
<path d="M-57.955549577344094,15.52914270615126 L-72.9555495773441,15.52914270615126" stroke="black" stroke-width="1" fill="none" />
<path d="M-57.9555495773441,-15.529142706151248 L-72.9555495773441,-15.529142706151248" stroke="black" stroke-width="1" fill="none" />
<path d="M72.9555495773441,15.529142706151244 A15.529142706151244,15.529142706151244,0,1,0,72.9555495773441,-15.529142706151244" stroke="black" stroke-width="1" fill="none" />
<path d="M-72.9555495773441,-15.529142706151244 A15.529142706151244,15.529142706151244,0,1,0,-72.9555495773441,15.529142706151244" stroke="black" stroke-width="1" fill="none" />
<path d="M49.14912265733951,34.41458618106276 L36.86184199300463,25.810939635797073" stroke="black" stroke-width="1" fill="none" />
<path d="M36.86184199300463,25.810939635797073 A45.0,45.0,0,0,1,25.810939635797073,36.86184199300463" stroke="black" stroke-width="1" fill="none" />
<path d="M34.41458618106276,49.14912265733951 L25.810939635797073,36.86184199300463" stroke="black" stroke-width="1" fill="none" />
<path d="M34.41458618106276,49.14912265733951 A60.0,60.0,0,0,1,25.357095704441967,54.378467222199" stroke="black" stroke-width="1" fill="none" />
<path d="M25.357095704441967,54.378467222199 L19.017821778331474,40.783850416649244" stroke="black" stroke-width="1" fill="none" />
<path d="M19.017821778331474,40.783850416649244 A45.0,45.0,0,0,1,3.922008423644616,44.82876141412855" stroke="black" stroke-width="1" fill="none" />
<path d="M5.229344564859488,59.771681885504734 L3.922008423644616,44.82876141412855" stroke="black" stroke-width="1" fill="none" />
<path d="M5.229344564859488,59.771681885504734 A60.0,60.0,0,0,1,-5.2293445648594945,59.771681885504734" stroke="black" stroke-width="1" fill="none" />
<path d="M-5.2293445648594945,59.771681885504734 L-3.9220084236446207,44.82876141412855" stroke="black" stroke-width="1" fill="none" />
<path d="M-3.9220084236446207,44.82876141412855 A45.0,45.0,0,0,1,-19.01782177833147,40.78385041664925" stroke="black" stroke-width="1" fill="none" />
<path d="M-25.35709570444196,54.378467222199006 L-19.01782177833147,40.78385041664925" stroke="black" stroke-width="1" fill="none" />
<path d="M-25.35709570444196,54.378467222199006 A60.0,60.0,0,0,1,-34.41458618106275,49.14912265733952" stroke="black" stroke-width="1" fill="none" />
<path d="M-34.41458618106277,49.149122657339504 L-25.810939635797077,36.861841993004624" stroke="black" stroke-width="1" fill="none" />
<path d="M-25.810939635797062,36.86184199300464 A45.0,45.0,0,0,1,-36.861841993004624,25.810939635797087" stroke="black" stroke-width="1" fill="none" />
<path d="M-49.14912265733952,34.41458618106276 L-36.86184199300464,25.810939635797066" stroke="black" stroke-width="1" fill="none" />
<path d="M-49.1491226573395,34.41458618106278 A60.0,60.0,0,0,1,-54.378467222199,25.35709570444197" stroke="black" stroke-width="1" fill="none" />
<path d="M-49.14912265733951,-34.41458618106277 L-36.86184199300463,-25.810939635797077" stroke="black" stroke-width="1" fill="none" />
<path d="M-36.86184199300464,-25.810939635797062 A45.0,45.0,0,0,1,-25.810939635797087,-36.861841993004624" stroke="black" stroke-width="1" fill="none" />
<path d="M-34.41458618106278,-49.1491226573395 L-25.810939635797087,-36.861841993004624" stroke="black" stroke-width="1" fill="none" />
<path d="M-34.41458618106278,-49.1491226573395 A60.0,60.0,0,0,1,-25.357095704441996,-54.378467222198985" stroke="black" stroke-width="1" fill="none" />
<path d="M-25.35709570444195,-54.378467222199006 L-19.017821778331463,-40.78385041664926" stroke="black" stroke-width="1" fill="none" />
<path d="M-19.0178217783315,-40.78385041664924 A45.0,45.0,0,0,1,-3.922008423644621,-44.82876141412855" stroke="black" stroke-width="1" fill="none" />
<path d="M-5.229344564859495,-59.771681885504734 L-3.922008423644621,-44.82876141412855" stroke="black" stroke-width="1" fill="none" />
<path d="M-5.229344564859495,-59.771681885504734 A60.0,60.0,0,0,1,5.229344564859473,-59.771681885504734" stroke="black" stroke-width="1" fill="none" />
<path d="M5.229344564859473,-59.771681885504734 L3.922008423644605,-44.82876141412855" stroke="black" stroke-width="1" fill="none" />
<path d="M3.922008423644605,-44.82876141412855 A45.0,45.0,0,0,1,19.01782177833148,-40.783850416649244" stroke="black" stroke-width="1" fill="none" />
<path d="M25.357095704441978,-54.37846722219899 L19.01782177833148,-40.783850416649244" stroke="black" stroke-width="1" fill="none" />
<path d="M25.357095704441978,-54.37846722219899 A60.0,60.0,0,0,1,34.41458618106276,-49.14912265733951" stroke="black" stroke-width="1" fill="none" />
<path d="M34.41458618106276,-49.14912265733951 L25.810939635797073,-36.86184199300463" stroke="black" stroke-width="1" fill="none" />
<path d="M25.810939635797073,-36.86184199300463 A45.0,45.0,0,0,1,36.861841993004624,-25.81093963579709" stroke="black" stroke-width="1" fill="none" />
<path d="M49.1491226573395,-34.41458618106279 L36.861841993004624,-25.81093963579709" stroke="black" stroke-width="1" fill="none" />
<use xlink:href="#d0" x="22.5" y="0.0" />
<use xlink:href="#d1" x="-22.5" y="2.7554552980815448e-15" />
<use xlink:href="#d2" x="11.646857029613432" y="43.466662183008076" />
<use xlink:href="#d3" x="-31.819805153394636" y="31.81980515339464" />
<path d="M14.418495627147292,24.95119326748184 L37.57132034355965,2.121320343559643" stroke="black" stroke-width="1" fill="none" />
<path d="M8.875218432079572,22.6550926732913 L33.32867965644036,-2.121320343559643" stroke="black" stroke-width="1" fill="none" />
<path d="M14.646857029613432,43.466662183008076 L14.418495627147292,24.95119326748184" stroke="black" stroke-width="1" fill="none" />
<path d="M8.646857029613432,43.466662183008076 L8.875218432079572,22.6550926732913" stroke="black" stroke-width="1" fill="none" />
<path d="M14.646857029613432,43.466662183008076 L8.646857029613432,43.466662183008076" stroke="black" stroke-width="1" fill="none" />
<path d="M37.57132034355965,2.121320343559643 L33.32867965644036,-2.121320343559643" stroke="black" stroke-width="1" fill="none" />
<path d="M-17.096674462147977,-2.83828270959914 L-17.963591216849103,-2.3705658264062874" stroke="black" stroke-width="1" fill="none" />
<path d="M-15.153325537852018,2.83828270959914 L-14.286408783150899,2.3705658264062928" stroke="black" stroke-width="1" fill="none" />
<path d="M10.049999999999999,-3.0 L-17.096674462147977,-2.83828270959914" stroke="black" stroke-width="1" fill="none" />
<path d="M10.049999999999999,3.0 L-15.153325537852018,2.83828270959914" stroke="black" stroke-width="1" fill="none" />
<path d="M10.049999999999999,-3.0 L10.049999999999999,3.0" stroke="black" stroke-width="1" fill="none" />
<path d="M-17.963591216849103,-2.3705658264062874 L-14.286408783150899,2.3705658264062928" stroke="black" stroke-width="1" fill="none" />
<path d="M-29.048166555860778,4.142855450489911 L-26.703679656440357,2.1213203435596455" stroke="black" stroke-width="1" fill="none" />
<path d="M-34.5914437509285,1.8467548562993685 L-30.94632034355964,-2.12132034355964" stroke="black" stroke-width="1" fill="none" />
<path d="M-28.819805153394636,31.81980515339464 L-29.048166555860778,4.142855450489911" stroke="black" stroke-width="1" fill="none" />
<path d="M-34.81980515339464,31.81980515339464 L-34.5914437509285,1.8467548562993685" stroke="black" stroke-width="1" fill="none" />
<path d="M-28.819805153394636,31.81980515339464 L-34.81980515339464,31.81980515339464" stroke="black" stroke-width="1" fill="none" />
<path d="M-26.703679656440357,2.1213203435596455 L-30.94632034355964,-2.12132034355964" stroke="black" stroke-width="1" fill="none" />
</svg>