<?xml version="1.0" encoding="UTF-8"?>
<svg xmlns="http://www.w3.org/2000/svg" xmlns:xlink="http://www.w3.org/1999/xlink"
     width="500" height="500" viewBox="-250.0 -250.0 500 500">
<defs>
<g stroke="black" stroke-width="1" fill="none" transform="rotate(0.0,0,0)" id="d0">
<path d="M-1.8750000000000018,4.5 L-1.8750000000000018,-4.5" stroke="black" stroke-width="1" fill="none" />
<path d="M-1.8750000000000018,-4.5 L-19.875,-4.5" stroke="black" stroke-width="1" fill="none" />
<path d="M-19.875,-4.5 L-19.875,4.5" stroke="black" stroke-width="1" fill="none" />
<path d="M-19.875,4.5 L-1.8750000000000018,4.5" stroke="black" stroke-width="1" fill="none" />
<path d="M19.51833243660161,1.1646857029613433 L18.619228634059944,2.25" stroke="black" stroke-width="1" fill="none" />
<path d="M18.619228634059944,2.25 L17.18896103067893,3.1819805153394642" stroke="black" stroke-width="1" fill="none" />
<path d="M17.18896103067893,3.1819805153394642 L15.324999999999998,3.897114317029974" stroke="black" stroke-width="1" fill="none" />
<path d="M15.324999999999998,3.897114317029974 L13.154371405922687,4.346666218300808" stroke="black" stroke-width="1" fill="none" />
<path d="M13.154371405922687,4.346666218300808 L10.825,4.5" stroke="black" stroke-width="1" fill="none" />
<path d="M10.825,4.5 L8.495628594077312,4.346666218300808" stroke="black" stroke-width="1" fill="none" />
<path d="M8.495628594077312,4.346666218300808 L6.325000000000002,3.8971143170299745" stroke="black" stroke-width="1" fill="none" />
<path d="M6.325000000000002,3.8971143170299745 L4.461038969321073,3.1819805153394642" stroke="black" stroke-width="1" fill="none" />
<path d="M4.461038969321073,3.1819805153394642 L3.0307713659400504,2.25" stroke="black" stroke-width="1" fill="none" />
<path d="M3.0307713659400504,2.25 L2.131667563398385,1.1646857029613447" stroke="black" stroke-width="1" fill="none" />
<path d="M2.131667563398385,1.1646857029613447 L1.8249999999999988,5.51091059616309e-16" stroke="black" stroke-width="1" fill="none" />
<path d="M1.8249999999999988,5.51091059616309e-16 L2.131667563398384,-1.1646857029613435" stroke="black" stroke-width="1" fill="none" />
<path d="M2.131667563398384,-1.1646857029613435 L3.0307713659400495,-2.2499999999999987" stroke="black" stroke-width="1" fill="none" />
<path d="M3.0307713659400495,-2.2499999999999987 L4.461038969321068,-3.181980515339462" stroke="black" stroke-width="1" fill="none" />
<path d="M4.461038969321068,-3.181980515339462 L6.324999999999995,-3.897114317029973" stroke="black" stroke-width="1" fill="none" />
<path d="M6.324999999999995,-3.897114317029973 L8.495628594077312,-4.346666218300808" stroke="black" stroke-width="1" fill="none" />
<path d="M8.495628594077312,-4.346666218300808 L10.824999999999996,-4.5" stroke="black" stroke-width="1" fill="none" />
<path d="M10.824999999999996,-4.5 L13.154371405922682,-4.3466662183008085" stroke="black" stroke-width="1" fill="none" />
<path d="M13.154371405922682,-4.3466662183008085 L15.324999999999998,-3.897114317029974" stroke="black" stroke-width="1" fill="none" />
<path d="M15.324999999999998,-3.897114317029974 L17.188961030678925,-3.1819805153394647" stroke="black" stroke-width="1" fill="none" />
<path d="M17.188961030678925,-3.1819805153394647 L18.619228634059944,-2.2500000000000018" stroke="black" stroke-width="1" fill="none" />
<path d="M18.619228634059944,-2.2500000000000018 L19.51833243660161,-1.164685702961347" stroke="black" stroke-width="1" fill="none" />
<path d="M19.51833243660161,-1.164685702961347 L19.825,0.0" stroke="black" stroke-width="1" fill="none" />
<path d="M19.825,0.0 L19.51833243660161,1.1646857029613433" stroke="black" stroke-width="1" fill="none" />
</g>
<g stroke="black" stroke-width="1" fill="none" transform="rotate(0.0,0,0)" id="d1">
<path d="M3.8637033051562732,1.035276180410083 L3.464101615137755,1.9999999999999998" stroke="black" stroke-width="1" fill="none" />
<path d="M3.464101615137755,1.9999999999999998 L2.8284271247461903,2.8284271247461903" stroke="black" stroke-width="1" fill="none" />
<path d="M2.8284271247461903,2.8284271247461903 L2.0000000000000004,3.4641016151377544" stroke="black" stroke-width="1" fill="none" />
<path d="M2.0000000000000004,3.4641016151377544 L1.035276180410083,3.8637033051562732" stroke="black" stroke-width="1" fill="none" />
<path d="M1.035276180410083,3.8637033051562732 L2.4492935982947064e-16,4.0" stroke="black" stroke-width="1" fill="none" />
<path d="M2.4492935982947064e-16,4.0 L-1.0352761804100825,3.8637033051562732" stroke="black" stroke-width="1" fill="none" />
<path d="M-1.0352761804100825,3.8637033051562732 L-1.9999999999999991,3.464101615137755" stroke="black" stroke-width="1" fill="none" />
<path d="M-1.9999999999999991,3.464101615137755 L-2.82842712474619,2.8284271247461903" stroke="black" stroke-width="1" fill="none" />
<path d="M-2.82842712474619,2.8284271247461903 L-3.464101615137755,1.9999999999999998" stroke="black" stroke-width="1" fill="none" />
<path d="M-3.464101615137755,1.9999999999999998 L-3.863703305156273,1.035276180410084" stroke="black" stroke-width="1" fill="none" />
<path d="M-3.863703305156273,1.035276180410084 L-4.0,4.898587196589413e-16" stroke="black" stroke-width="1" fill="none" />
<path d="M-4.0,4.898587196589413e-16 L-3.8637033051562732,-1.0352761804100832" stroke="black" stroke-width="1" fill="none" />
<path d="M-3.8637033051562732,-1.0352761804100832 L-3.4641016151377553,-1.999999999999999" stroke="black" stroke-width="1" fill="none" />
<path d="M-3.4641016151377553,-1.999999999999999 L-2.8284271247461916,-2.8284271247461885" stroke="black" stroke-width="1" fill="none" />
<path d="M-2.8284271247461916,-2.8284271247461885 L-2.0000000000000018,-3.464101615137754" stroke="black" stroke-width="1" fill="none" />
<path d="M-2.0000000000000018,-3.464101615137754 L-1.0352761804100825,-3.8637033051562732" stroke="black" stroke-width="1" fill="none" />
<path d="M-1.0352761804100825,-3.8637033051562732 L-7.347880794884119e-16,-4.0" stroke="black" stroke-width="1" fill="none" />
<path d="M-7.347880794884119e-16,-4.0 L1.0352761804100812,-3.8637033051562737" stroke="black" stroke-width="1" fill="none" />
<path d="M1.0352761804100812,-3.8637033051562737 L2.0000000000000004,-3.4641016151377544" stroke="black" stroke-width="1" fill="none" />
<path d="M2.0000000000000004,-3.4641016151377544 L2.8284271247461894,-2.8284271247461907" stroke="black" stroke-width="1" fill="none" />
<path d="M2.8284271247461894,-2.8284271247461907 L3.4641016151377535,-2.0000000000000018" stroke="black" stroke-width="1" fill="none" />
<path d="M3.4641016151377535,-2.0000000000000018 L3.8637033051562724,-1.0352761804100863" stroke="black" stroke-width="1" fill="none" />
<path d="M3.8637033051562724,-1.0352761804100863 L4.0,0.0" stroke="black" stroke-width="1" fill="none" />
<path d="M4.0,0.0 L3.8637033051562732,1.035276180410083" stroke="black" stroke-width="1" fill="none" />
</g>
<g stroke="black" stroke-width="1" fill="none" transform="rotate(0.0,0,0)" id="d2">
<path d="M3.8637033051562732,1.035276180410083 L3.464101615137755,1.9999999999999998" stroke="black" stroke-width="1" fill="none" />
<path d="M3.464101615137755,1.9999999999999998 L2.8284271247461903,2.8284271247461903" stroke="black" stroke-width="1" fill="none" />
<path d="M2.8284271247461903,2.8284271247461903 L2.0000000000000004,3.4641016151377544" stroke="black" stroke-width="1" fill="none" />
<path d="M2.0000000000000004,3.4641016151377544 L1.035276180410083,3.8637033051562732" stroke="black" stroke-width="1" fill="none" />
<path d="M1.035276180410083,3.8637033051562732 L2.4492935982947064e-16,4.0" stroke="black" stroke-width="1" fill="none" />
<path d="M2.4492935982947064e-16,4.0 L-1.0352761804100825,3.8637033051562732" stroke="black" stroke-width="1" fill="none" />
<path d="M-1.0352761804100825,3.8637033051562732 L-1.9999999999999991,3.464101615137755" stroke="black" stroke-width="1" fill="none" />
<path d="M-1.9999999999999991,3.464101615137755 L-2.82842712474619,2.8284271247461903" stroke="black" stroke-width="1" fill="none" />
<path d="M-2.82842712474619,2.8284271247461903 L-3.464101615137755,1.9999999999999998" stroke="black" stroke-width="1" fill="none" />
<path d="M-3.464101615137755,1.9999999999999998 L-3.863703305156273,1.035276180410084" stroke="black" stroke-width="1" fill="none" />
<path d="M-3.863703305156273,1.035276180410084 L-4.0,4.898587196589413e-16" stroke="black" stroke-width="1" fill="none" />
<path d="M-4.0,4.898587196589413e-16 L-3.8637033051562732,-1.0352761804100832" stroke="black" stroke-width="1" fill="none" />
<path d="M-3.8637033051562732,-1.0352761804100832 L-3.4641016151377553,-1.999999999999999" stroke="black" stroke-width="1" fill="none" />
<path d="M-3.4641016151377553,-1.999999999999999 L-2.8284271247461916,-2.8284271247461885" stroke="black" stroke-width="1" fill="none" />
<path d="M-2.8284271247461916,-2.8284271247461885 L-2.0000000000000018,-3.464101615137754" stroke="black" stroke-width="1" fill="none" />
<path d="M-2.0000000000000018,-3.464101615137754 L-1.0352761804100825,-3.8637033051562732" stroke="black" stroke-width="1" fill="none" />
<path d="M-1.0352761804100825,-3.8637033051562732 L-7.347880794884119e-16,-4.0" stroke="black" stroke-width="1" fill="none" />
<path d="M-7.347880794884119e-16,-4.0 L1.0352761804100812,-3.8637033051562737" stroke="black" stroke-width="1" fill="none" />
<path d="M1.0352761804100812,-3.8637033051562737 L2.0000000000000004,-3.4641016151377544" stroke="black" stroke-width="1" fill="none" />
<path d="M2.0000000000000004,-3.4641016151377544 L2.8284271247461894,-2.8284271247461907" stroke="black" stroke-width="1" fill="none" />
<path d="M2.8284271247461894,-2.8284271247461907 L3.4641016151377535,-2.0000000000000018" stroke="black" stroke-width="1" fill="none" />
<path d="M3.4641016151377535,-2.0000000000000018 L3.8637033051562724,-1.0352761804100863" stroke="black" stroke-width="1" fill="none" />
<path d="M3.8637033051562724,-1.0352761804100863 L4.0,0.0" stroke="black" stroke-width="1" fill="none" />
<path d="M4.0,0.0 L3.8637033051562732,1.035276180410083" stroke="black" stroke-width="1" fill="none" />
</g>
</defs>
<circle cx="0" cy="0" r="45.0" stroke="black" stroke-width="1" fill="none" />
<circle cx="0" cy="0" r="47.0" stroke="black" stroke-width="1" fill="none" />
<path d="M36.86184199300463,-25.810939635797073 A45.0,45.0,0,0,1,43.466662183008076,-11.646857029613432" stroke="black" stroke-width="1" fill="none" />
<path d="M43.466662183008076,11.646857029613432 A45.0,45.0,0,0,1,36.86184199300463,25.810939635797073" stroke="black" stroke-width="1" fill="none" />
<path d="M-36.861841993004624,25.810939635797087 A45.0,45.0,0,0,1,-43.46666218300807,11.646857029613447" stroke="black" stroke-width="1" fill="none" />
<path d="M-43.466662183008076,-11.646857029613416 A45.0,45.0,0,0,1,-36.86184199300464,-25.810939635797062" stroke="black" stroke-width="1" fill="none" />
<path d="M43.466662183008076,11.646857029613432 L58.466662183008076,11.646857029613432" stroke="black" stroke-width="1" fill="none" />
<path d="M43.466662183008076,-11.646857029613432 L58.466662183008076,-11.646857029613432" stroke="black" stroke-width="1" fill="none" />
<path d="M-43.46666218300807,11.646857029613447 L-58.46666218300807,11.646857029613447" stroke="black" stroke-width="1" fill="none" />
<path d="M-43.466662183008076,-11.646857029613436 L-58.466662183008076,-11.646857029613436" stroke="black" stroke-width="1" fill="none" />
<path d="M58.466662183008076,11.646857029613432 A11.646857029613432,11.646857029613432,0,1,0,58.466662183008076,-11.646857029613432" stroke="black" stroke-width="1" fill="none" />
<path d="M-58.46666218300807,-11.646857029613432 A11.646857029613432,11.646857029613432,0,1,0,-58.46666218300807,11.646857029613432" stroke="black" stroke-width="1" fill="none" />
<path d="M36.86184199300463,25.810939635797073 L24.574561328669756,17.20729309053138" stroke="black" stroke-width="1" fill="none" />
<path d="M24.574561328669756,17.20729309053138 A30.0,30.0,0,0,1,17.20729309053138,24.574561328669756" stroke="black" stroke-width="1" fill="none" />
<path d="M25.810939635797073,36.86184199300463 L17.20729309053138,24.574561328669756" stroke="black" stroke-width="1" fill="none" />
<path d="M25.810939635797073,36.86184199300463 A45.0,45.0,0,0,1,19.017821778331474,40.783850416649244" stroke="black" stroke-width="1" fill="none" />
<path d="M19.017821778331474,40.783850416649244 L12.678547852220984,27.1892336110995" stroke="black" stroke-width="1" fill="none" />
<path d="M12.678547852220984,27.1892336110995 A30.0,30.0,0,0,1,2.614672282429744,29.885840942752367" stroke="black" stroke-width="1" fill="none" />
<path d="M3.922008423644616,44.82876141412855 L2.614672282429744,29.885840942752367" stroke="black" stroke-width="1" fill="none" />
<path d="M3.922008423644616,44.82876141412855 A45.0,45.0,0,0,1,-3.9220084236446207,44.82876141412855" stroke="black" stroke-width="1" fill="none" />
<path d="M-3.9220084236446207,44.82876141412855 L-2.6146722824297473,29.885840942752367" stroke="black" stroke-width="1" fill="none" />
<path d="M-2.6146722824297473,29.885840942752367 A30.0,30.0,0,0,1,-12.67854785222098,27.189233611099503" stroke="black" stroke-width="1" fill="none" />
<path d="M-19.01782177833147,40.78385041664925 L-12.67854785222098,27.189233611099503" stroke="black" stroke-width="1" fill="none" />
<path d="M-19.01782177833147,40.78385041664925 A45.0,45.0,0,0,1,-25.810939635797062,36.86184199300464" stroke="black" stroke-width="1" fill="none" />
<path d="M-25.810939635797077,36.861841993004624 L-17.207293090531383,24.574561328669752" stroke="black" stroke-width="1" fill="none" />
<path d="M-17.207293090531376,24.57456132866976 A30.0,30.0,0,0,1,-24.57456132866975,17.20729309053139" stroke="black" stroke-width="1" fill="none" />
<path d="M-36.86184199300464,25.810939635797066 L-24.57456132866976,17.20729309053138" stroke="black" stroke-width="1" fill="none" />
<path d="M-36.861841993004624,25.810939635797087 A45.0,45.0,0,0,1,-40.783850416649244,19.017821778331477" stroke="black" stroke-width="1" fill="none" />
<path d="M-36.86184199300463,-25.810939635797077 L-24.574561328669756,-17.207293090531383" stroke="black" stroke-width="1" fill="none" />
<path d="M-24.57456132866976,-17.207293090531376 A30.0,30.0,0,0,1,-17.20729309053139,-24.57456132866975" stroke="black" stroke-width="1" fill="none" />
<path d="M-25.810939635797087,-36.861841993004624 L-17.20729309053139,-24.57456132866975" stroke="black" stroke-width="1" fill="none" />
<path d="M-25.810939635797087,-36.861841993004624 A45.0,45.0,0,0,1,-19.0178217783315,-40.78385041664924" stroke="black" stroke-width="1" fill="none" />
<path d="M-19.017821778331463,-40.78385041664926 L-12.678547852220975,-27.189233611099503" stroke="black" stroke-width="1" fill="none" />
<path d="M-12.678547852220998,-27.189233611099493 A30.0,30.0,0,0,1,-2.6146722824297477,-29.885840942752367" stroke="black" stroke-width="1" fill="none" />
<path d="M-3.922008423644621,-44.82876141412855 L-2.6146722824297477,-29.885840942752367" stroke="black" stroke-width="1" fill="none" />
<path d="M-3.922008423644621,-44.82876141412855 A45.0,45.0,0,0,1,3.922008423644605,-44.82876141412855" stroke="black" stroke-width="1" fill="none" />
<path d="M3.922008423644605,-44.82876141412855 L2.6146722824297366,-29.885840942752367" stroke="black" stroke-width="1" fill="none" />
<path d="M2.6146722824297366,-29.885840942752367 A30.0,30.0,0,0,1,12.678547852220989,-27.189233611099496" stroke="black" stroke-width="1" fill="none" />
<path d="M19.01782177833148,-40.783850416649244 L12.678547852220989,-27.189233611099496" stroke="black" stroke-width="1" fill="none" />
<path d="M19.01782177833148,-40.783850416649244 A45.0,45.0,0,0,1,25.810939635797073,-36.86184199300463" stroke="black" stroke-width="1" fill="none" />
<path d="M25.810939635797073,-36.86184199300463 L17.20729309053138,-24.574561328669756" stroke="black" stroke-width="1" fill="none" />
<path d="M17.20729309053138,-24.574561328669756 A30.0,30.0,0,0,1,24.57456132866975,-17.207293090531394" stroke="black" stroke-width="1" fill="none" />
<path d="M36.861841993004624,-25.81093963579709 L24.57456132866975,-17.207293090531394" stroke="black" stroke-width="1" fill="none" />
<use xlink:href="#d0" x="0.0" y="0.0" />
<use xlink:href="#d1" x="21.213203435596427" y="21.213203435596427" />
<use xlink:href="#d2" x="7.764571353075622" y="28.97777478867205" />
</svg>